<?xml version="1.0" encoding="UTF-8" standalone="no"?>
<svg
   xmlns:dc="http://purl.org/dc/elements/1.1/"
   xmlns:cc="http://creativecommons.org/ns#"
   xmlns:rdf="http://www.w3.org/1999/02/22-rdf-syntax-ns#"
   xmlns:svg="http://www.w3.org/2000/svg"
   xmlns="http://www.w3.org/2000/svg"
   xmlns:sodipodi="http://sodipodi.sourceforge.net/DTD/sodipodi-0.dtd"
   xmlns:inkscape="http://www.inkscape.org/namespaces/inkscape"
   width="161.73387mm"
   height="46.566631mm"
   viewBox="0 0 161.73387 46.566631"
   version="1.1"
   id="svg8"
   inkscape:version="1.0.1 (3bc2e813f5, 2020-09-07)"
   sodipodi:docname="logo_colored.svg">
  <defs
     id="defs2" />
  <sodipodi:namedview
     id="base"
     pagecolor="#606060"
     bordercolor="#000000"
     borderopacity="1"
     inkscape:pageopacity="1"
     inkscape:pageshadow="2"
     inkscape:zoom="0.7"
     inkscape:cx="323.40348"
     inkscape:cy="7.665411"
     inkscape:document-units="mm"
     inkscape:current-layer="layer2"
     inkscape:document-rotation="0"
     showgrid="false"
     inkscape:showpageshadow="false"
     borderlayer="true"
     inkscape:pagecheckerboard="false"
     inkscape:window-width="2560"
     inkscape:window-height="1377"
     inkscape:window-x="1912"
     inkscape:window-y="-8"
     inkscape:window-maximized="1">
    <inkscape:grid
       type="xygrid"
       id="grid12"
       originx="-24.133067"
       originy="-125.21669" />
  </sodipodi:namedview>
  <metadata
     id="metadata5">
    <rdf:RDF>
      <cc:Work
         rdf:about="">
        <dc:format>image/svg+xml</dc:format>
        <dc:type
           rdf:resource="http://purl.org/dc/dcmitype/StillImage" />
        <dc:title></dc:title>
      </cc:Work>
    </rdf:RDF>
  </metadata>
  <g
     inkscape:groupmode="layer"
     id="layer2"
     inkscape:label="Layer 1"
     transform="translate(-24.133068,-125.21668)">
    <g
       id="g1531"
       transform="translate(-181.50595,24.52381)">
      <g
         id="g1019"
         transform="translate(183.35805,-24.523805)"
         style="display:inline">
        <g
           id="g904">
          <path
             d="m 64.698723,138.00413 c -1.227662,0 -4.487326,0.25396 -5.545656,0.76188 -1.015998,0.5079 -1.601446,1.27274 -1.523996,2.28562 l 2.116666,27.68153 c 0.08068,1.05508 0.507998,1.82005 1.523996,2.28564 1.05833,0.46558 2.201328,0.69837 3.42899,0.69837 1.227662,0 2.349492,-0.23279 3.365488,-0.69837 1.05833,-0.46559 1.506819,-1.23056 1.587496,-2.28564 l 2.116666,-27.68153 c 0.07745,-1.01288 -0.529166,-1.77772 -1.587496,-2.28562 -1.015996,-0.50792 -4.254492,-0.76188 -5.482154,-0.76188 z"
             style="font-weight:800;font-size:31.7499px;line-height:1.25;font-family:Dosis;-inkscape-font-specification:'Dosis Ultra-Bold';font-variation-settings:normal;vector-effect:none;fill:#1d3557;fill-opacity:1;stroke-width:1.58737;stroke-linecap:butt;stroke-linejoin:miter;stroke-miterlimit:4;stroke-dasharray:none;stroke-dashoffset:0;stroke-opacity:1;stop-color:#000000"
             id="path879"
             sodipodi:nodetypes="scsscscsscs" />
          <path
             d="m 83.579334,138.00413 c -1.227662,0 -4.487326,0.25396 -5.545656,0.76188 -1.015998,0.5079 -1.601446,1.27274 -1.523996,2.28562 l 2.116666,27.68153 c 0.08068,1.05508 0.507998,1.82005 1.523996,2.28564 1.05833,0.46558 2.201328,0.69837 3.42899,0.69837 1.227662,0 2.349492,-0.23279 3.365488,-0.69837 1.05833,-0.46559 1.506819,-1.23056 1.587496,-2.28564 l 2.116666,-27.68153 c 0.07745,-1.01288 -0.529166,-1.77772 -1.587496,-2.28562 -1.015996,-0.50792 -4.254492,-0.76188 -5.482154,-0.76188 z"
             style="font-weight:800;font-size:31.7499px;line-height:1.25;font-family:Dosis;-inkscape-font-specification:'Dosis Ultra-Bold';font-variation-settings:normal;display:inline;vector-effect:none;fill:#1d3557;fill-opacity:1;stroke-width:1.58737;stroke-linecap:butt;stroke-linejoin:miter;stroke-miterlimit:4;stroke-dasharray:none;stroke-dashoffset:0;stroke-opacity:1;stop-color:#000000"
             id="path879-5"
             sodipodi:nodetypes="scsscscsscs" />
          <path
             d="m 102.45992,138.00413 c -1.22766,0 -4.487318,0.25396 -5.545642,0.76188 -1.015994,0.5079 -1.601442,1.27274 -1.523992,2.28562 l 2.116659,27.68153 c 0.0807,1.05508 0.507997,1.82005 1.523991,2.28564 1.058324,0.46558 2.201324,0.69837 3.428984,0.69837 1.22766,0 2.34949,-0.23279 3.36549,-0.69837 1.05833,-0.46559 1.50682,-1.23056 1.58749,-2.28564 l 2.11667,-27.68153 c 0.0774,-1.01288 -0.52917,-1.77772 -1.5875,-2.28562 -1.01599,-0.50792 -4.25449,-0.76188 -5.48215,-0.76188 z"
             style="font-weight:800;font-size:31.7499px;line-height:1.25;font-family:Dosis;-inkscape-font-specification:'Dosis Ultra-Bold';font-variation-settings:normal;display:inline;vector-effect:none;fill:#1d3557;fill-opacity:1;stroke-width:1.58737;stroke-linecap:butt;stroke-linejoin:miter;stroke-miterlimit:4;stroke-dasharray:none;stroke-dashoffset:0;stroke-opacity:1;stop-color:#000000"
             id="path879-5-4"
             sodipodi:nodetypes="scsscscsscs" />
          <path
             d="m 26.598954,171.78331 q -1.968494,0 -3.17499,-0.889 -1.142996,-0.88898 -1.142996,-2.09548 v -40.44939 q 0,-1.2065 1.142996,-2.0955 1.206496,-0.88898 3.17499,-0.88898 H 37.83842 q 4.381486,0 7.937474,1.46048 3.55599,1.4605 5.587982,4.7625 2.095494,3.30198 2.095494,8.76297 v 16.44646 q 0,5.46098 -2.095494,8.76295 -2.031992,3.302 -5.587982,4.7625 -3.555988,1.46048 -7.937474,1.46048 z m 5.587982,-8.63596 h 5.651484 q 2.66699,0 4.190986,-1.524 1.523996,-1.5875 1.523996,-4.82598 v -16.44646 q 0,-3.23848 -1.523996,-4.76248 -1.523996,-1.58751 -4.190986,-1.58751 h -5.651484 z"
             style="font-weight:800;font-size:31.7499px;line-height:1.25;font-family:Dosis;-inkscape-font-specification:'Dosis Ultra-Bold';fill:#1d3557;fill-opacity:1;stroke-width:1.5875"
             id="path31-1" />
          <path
             d="m 120.2822,171.78331 q -1.84149,0 -3.42899,-0.762 -1.524,-0.76198 -1.524,-2.28598 v -40.32239 q 0,-1.5875 1.524,-2.286 1.5875,-0.76198 3.42899,-0.76198 1.77799,0 2.92099,0.3175 1.20649,0.254 2.159,1.26998 1.01598,1.016 2.2225,3.3655 l 10.287,19.62145 v -21.58995 q 0,-1.5875 1.52398,-2.286 1.5875,-0.69848 3.429,-0.69848 1.8415,0 3.36548,0.69848 1.5875,0.6985 1.5875,2.286 v 40.38588 q 0,1.524 -1.5875,2.28598 -1.52398,0.762 -3.36548,0.762 -1.7145,0 -3.175,-0.508 -1.46048,-0.50798 -2.34948,-2.15898 l -12.065,-21.97094 v 21.58994 q 0,1.524 -1.5875,2.28598 -1.524,0.762 -3.36549,0.76201 z"
             style="font-weight:800;font-size:31.7499px;line-height:1.25;font-family:Dosis;-inkscape-font-specification:'Dosis Ultra-Bold';fill:#1d3557;fill-opacity:1;stroke-width:1.5875"
             id="path39-7" />
          <path
             d="m 158.42442,171.78331 q -1.5875,0 -2.9845,-0.762 -1.3335,-0.76198 -1.3335,-2.28598 v -40.32239 q 0,-1.524 1.3335,-2.286 1.397,-0.76198 2.9845,-0.76198 h 22.60592 q 1.5875,0 2.286,1.39698 0.6985,1.3335 0.6985,2.8575 0,1.778 -0.762,3.11148 -0.762,1.27 -2.2225,1.27 H 164.0124 v 10.73149 h 9.52496 q 1.4605,0 2.2225,1.20648 0.762,1.143 0.762,2.667 0,1.27 -0.6985,2.54 -0.6985,1.20648 -2.286,1.20648 h -9.52496 v 10.79498 h 17.01794 q 1.4605,0 2.2225,1.33348 0.762,1.27 0.762,3.048 0,1.524 -0.6985,2.921 -0.6985,1.33348 -2.286,1.33348 z"
             style="font-weight:800;font-size:31.7499px;line-height:1.25;font-family:Dosis;-inkscape-font-specification:'Dosis Ultra-Bold';fill:#1d3557;fill-opacity:1;stroke-width:1.5875"
             id="path41-2" />
          <path
             id="path29-3"
             style="font-variation-settings:normal;vector-effect:none;fill:#f26979;fill-opacity:1;stroke-width:1.5875;stroke-linecap:butt;stroke-linejoin:miter;stroke-miterlimit:4;stroke-dasharray:none;stroke-dashoffset:0;stroke-opacity:1;stop-color:#000000"
             d="m 69.99039,130.50836 a 5.2916666,5.2916666 0 0 1 -5.291666,5.29171 5.2916666,5.2916666 0 0 1 -5.291668,-5.29171 5.2916666,5.2916666 0 0 1 5.291668,-5.29168 5.2916666,5.2916666 0 0 1 5.291666,5.29168 z" />
          <path
             id="path29-2-8"
             style="font-variation-settings:normal;vector-effect:none;fill:#e18b6b;fill-opacity:1;stroke-width:1.5875;stroke-linecap:butt;stroke-linejoin:miter;stroke-miterlimit:4;stroke-dasharray:none;stroke-dashoffset:0;stroke-opacity:1;stop-color:#000000"
             d="m 88.871,130.50836 a 5.2916666,5.2916666 0 0 1 -5.291666,5.29171 5.2916666,5.2916666 0 0 1 -5.291668,-5.29171 5.2916666,5.2916666 0 0 1 5.291668,-5.29168 5.2916666,5.2916666 0 0 1 5.291666,5.29168 z" />
          <path
             id="path29-2-1-8"
             style="font-variation-settings:normal;vector-effect:none;fill:#3c887e;fill-opacity:1;stroke-width:1.5875;stroke-linecap:butt;stroke-linejoin:miter;stroke-miterlimit:4;stroke-dasharray:none;stroke-dashoffset:0;stroke-opacity:1;stop-color:#000000"
             d="m 107.75159,130.50836 a 5.2916666,5.2916666 0 0 1 -5.29167,5.29171 5.2916666,5.2916666 0 0 1 -5.291652,-5.29171 5.2916666,5.2916666 0 0 1 5.291652,-5.29168 5.2916666,5.2916666 0 0 1 5.29167,5.29168 z" />
        </g>
      </g>
    </g>
  </g>
</svg>
