<svg id="Layer_1" data-name="Layer 1" xmlns="http://www.w3.org/2000/svg" viewBox="0 0 1388 421"><defs><style>.cls-1{fill:#fffbeb;}.cls-2{fill:#b3cbb9;}.cls-16,.cls-3{fill:#fff;}.cls-15,.cls-3{opacity:0.5;}.cls-4{fill:#9f999c;}.cls-5{fill:#3c8f7c;}.cls-6{fill:#50bfa5;}.cls-7{fill:#5e565a;}.cls-8{fill:#96d9c9;}.cls-9{fill:#ddd8b8;}.cls-10{fill:#355389;}.cls-11{fill:#13375b;}.cls-12{fill:#184655;}.cls-13{fill:#f7a491;}.cls-14{fill:#b75742;}.cls-15,.cls-18{fill:#f47458;}.cls-17{fill:#e76f51;}.cls-19{fill:#f8a492;}.cls-20{fill:#512d38;}.cls-21{fill:#f7cc7f;}.cls-22{fill:#c5ddf9;}.cls-23{fill:#eab054;}.cls-24{fill:#a34b3d;}.cls-25{fill:#bc4d26;}.cls-26{fill:#f48c7f;}.cls-27{fill:#466eb6;}.cls-28{fill:#fae0b2;}.cls-29{fill:#55bbf9;}.cls-30{fill:#7f1ca0;}</style></defs><path class="cls-1" d="M121.15,422.22H1224.72c91.47-36.81,44.4-147.57-32-170-82.24-24.17,48.36-107.76-78.33-134.89-82.72-17.71-194.83,2.07-249.59-36.06-64.33-44.81-171.21-99.35-370.27-57C341,57,424.38,120,173.16,139,44,148.71,68.94,232.18,81,249.43c10.49,15,79.9,38.85-16.56,71.67C-77,369.21,117.81,421.34,121.15,422.22Z"/><polygon class="cls-2" points="1180.62 420.9 1180.62 317.91 1133.95 317.91 1133.95 241.94 1089.06 241.94 1089.06 275.77 1051.9 275.77 1051.9 264.88 1051.9 197.82 991.07 197.82 991.07 269.09 972.88 269.55 972.88 197.69 951.65 197.69 951.65 167.06 938.91 167.06 938.91 146.5 889.17 146.5 889.17 167.06 876.43 167.06 876.43 197.69 855.2 197.69 855.2 236.62 845.41 237.07 842.47 121.74 776.96 121.74 776.96 183.1 753.91 183.56 753.91 87.66 746.02 87.66 746.02 67.42 676.87 67.42 676.87 87.66 668.99 87.66 668.99 216.89 654.43 216.89 654.43 176.59 642.3 176.59 642.3 156.89 624.71 156.89 624.71 99.38 599.23 99.38 599.23 156.89 581.64 156.89 581.64 176.59 569.51 176.59 569.51 244.76 561.02 244.76 554.35 244.7 554.35 165.72 374.81 167.01 374.81 344.86 359.64 344.86 359.64 321.55 305.05 321.55 305.05 366.34 289.28 366.34 289.28 349.89 254.71 349.89 254.71 378.23 254.71 383.25 220.13 383.25 220.13 420.9 1180.62 420.9"/><path class="cls-3" d="M945.81,108.57c-1.11-3.65-5.45-6.38-10.63-6.38a13.64,13.64,0,0,0-2.75.27c-2.56-4.13-8.11-7-14.55-7a21.15,21.15,0,0,0-4.78.54c-3.47-4.32-9.76-7.21-17-7.21-8.55,0-15.84,4.09-18.61,9.82a17.07,17.07,0,0,0-6.6-1.29c-7.5,0-13.58,4.58-13.58,10.23a8.26,8.26,0,0,0,.06,1Z"/><path class="cls-3" d="M562,137.05c-1.11-3.65-5.45-6.37-10.63-6.37a14.6,14.6,0,0,0-2.76.26c-2.55-4.12-8.11-7-14.54-7a21.15,21.15,0,0,0-4.78.55c-3.47-4.32-9.76-7.22-17-7.22-8.55,0-15.84,4.1-18.61,9.83a16.89,16.89,0,0,0-6.6-1.29c-7.5,0-13.58,4.58-13.58,10.23a8.1,8.1,0,0,0,.06,1Z"/><path class="cls-3" d="M1074.4,173.19c.56-1.85,2.75-3.22,5.36-3.22a7.81,7.81,0,0,1,1.39.13c1.29-2.07,4.09-3.51,7.33-3.51a10.47,10.47,0,0,1,2.41.27,11,11,0,0,1,8.55-3.64c4.32,0,8,2.07,9.38,5a8.52,8.52,0,0,1,3.33-.65c3.78,0,6.85,2.31,6.85,5.15a2.92,2.92,0,0,1,0,.51Z"/><path class="cls-3" d="M1038.83,146.33c-.75-2.48-3.7-4.33-7.22-4.33a9.49,9.49,0,0,0-1.87.18c-1.74-2.8-5.51-4.74-9.88-4.74a14.32,14.32,0,0,0-3.25.37c-2.35-2.93-6.63-4.9-11.51-4.9-5.82,0-10.77,2.78-12.64,6.67a11.59,11.59,0,0,0-4.49-.87c-5.09,0-9.22,3.11-9.22,6.95a4.92,4.92,0,0,0,0,.67Z"/><path class="cls-3" d="M656.46,50.11c-.76-2.48-3.71-4.33-7.23-4.33a9.56,9.56,0,0,0-1.87.18c-1.73-2.8-5.5-4.74-9.88-4.74a14.17,14.17,0,0,0-3.24.37c-2.36-2.94-6.63-4.91-11.52-4.91-5.81,0-10.76,2.78-12.64,6.68a11.58,11.58,0,0,0-4.48-.88c-5.1,0-9.23,3.11-9.23,7,0,.23,0,.45,0,.68Z"/><polygon class="cls-4" points="112.18 423.23 80.09 423.23 80.09 236.61 96.14 221.3 112.18 236.61 112.18 423.23"/><polygon class="cls-4" points="207.93 423.23 175.85 423.23 175.85 236.61 191.89 221.3 207.93 236.61 207.93 423.23"/><polygon class="cls-4" points="160.06 423.23 127.97 423.23 127.97 236.61 144.01 221.3 160.06 236.61 160.06 423.23"/><rect class="cls-4" x="91.69" y="283.45" width="149.93" height="10.28"/><polygon class="cls-4" points="258.28 423.23 226.2 423.23 226.2 236.61 242.24 221.3 258.28 236.61 258.28 423.23"/><polygon class="cls-4" points="354.04 423.23 321.95 423.23 321.95 236.61 337.99 221.3 354.04 236.61 354.04 423.23"/><polygon class="cls-4" points="306.16 423.23 274.07 423.23 274.07 236.61 290.12 221.3 306.16 236.61 306.16 423.23"/><rect class="cls-4" x="237.79" y="283.45" width="149.93" height="10.28"/><polygon class="cls-4" points="404.38 423.23 372.3 423.23 372.3 236.61 388.34 221.3 404.38 236.61 404.38 423.23"/><polygon class="cls-4" points="500.14 423.23 468.05 423.23 468.05 236.61 484.09 221.3 500.14 236.61 500.14 423.23"/><polygon class="cls-4" points="452.26 423.23 420.18 423.23 420.18 236.61 436.22 221.3 452.26 236.61 452.26 423.23"/><rect class="cls-4" x="383.89" y="283.45" width="149.93" height="10.28"/><polygon class="cls-4" points="550.49 423.23 518.4 423.23 518.4 236.61 534.44 221.3 550.49 236.61 550.49 423.23"/><polygon class="cls-4" points="646.24 423.23 614.15 423.23 614.15 236.61 630.2 221.3 646.24 236.61 646.24 423.23"/><polygon class="cls-4" points="598.36 423.23 566.28 423.23 566.28 236.61 582.32 221.3 598.36 236.61 598.36 423.23"/><rect class="cls-4" x="529.99" y="283.45" width="149.93" height="10.28"/><polygon class="cls-4" points="696.59 423.23 664.5 423.23 664.5 236.61 680.54 221.3 696.59 236.61 696.59 423.23"/><polygon class="cls-4" points="792.34 423.23 760.25 423.23 760.25 236.61 776.3 221.3 792.34 236.61 792.34 423.23"/><polygon class="cls-4" points="744.47 423.23 712.38 423.23 712.38 236.61 728.42 221.3 744.47 236.61 744.47 423.23"/><rect class="cls-4" x="676.09" y="283.45" width="149.93" height="10.28"/><polygon class="cls-4" points="842.69 423.23 810.6 423.23 810.6 236.61 826.65 221.3 842.69 236.61 842.69 423.23"/><polygon class="cls-4" points="938.44 423.23 906.36 423.23 906.36 236.61 922.4 221.3 938.44 236.61 938.44 423.23"/><polygon class="cls-4" points="890.57 423.23 858.48 423.23 858.48 236.61 874.52 221.3 890.57 236.61 890.57 423.23"/><rect class="cls-4" x="822.2" y="283.45" width="149.93" height="10.28"/><polygon class="cls-4" points="988.79 423.23 956.71 423.23 956.71 236.61 972.75 221.3 988.79 236.61 988.79 423.23"/><polygon class="cls-4" points="1084.54 423.23 1052.46 423.23 1052.46 236.61 1068.5 221.3 1084.54 236.61 1084.54 423.23"/><polygon class="cls-4" points="1036.67 423.23 1004.58 423.23 1004.58 236.61 1020.62 221.3 1036.67 236.61 1036.67 423.23"/><rect class="cls-4" x="968.3" y="283.45" width="149.93" height="10.28"/><polygon class="cls-4" points="1134.89 423.23 1102.81 423.23 1102.81 236.61 1118.85 221.3 1134.89 236.61 1134.89 423.23"/><polygon class="cls-4" points="1230.64 423.23 1198.56 423.23 1198.56 236.61 1214.6 221.3 1230.64 236.61 1230.64 423.23"/><polygon class="cls-4" points="1182.77 423.23 1150.68 423.23 1150.68 236.61 1166.73 221.3 1182.77 236.61 1182.77 423.23"/><rect class="cls-4" x="1114.4" y="283.45" width="149.93" height="10.28"/><polygon class="cls-4" points="1280.99 423.23 1248.91 423.23 1248.91 236.61 1264.95 221.3 1280.99 236.61 1280.99 423.23"/><path class="cls-5" d="M341.54,402.82a28.27,28.27,0,0,0,.4-4.72c0-17.88-16.76-32.37-37.43-32.37s-37.43,14.49-37.43,32.37a28.27,28.27,0,0,0,.4,4.72Z"/><path class="cls-6" d="M383.9,394.87a56.18,56.18,0,0,0,.4-6.66c0-25.21-16.76-45.65-37.43-45.65S309.44,363,309.44,388.21a56.18,56.18,0,0,0,.4,6.66Z"/><path class="cls-6" d="M370.2,422.84a28.25,28.25,0,0,1-.4-4.71c0-17.88,16.76-32.38,37.43-32.38s37.43,14.5,37.43,32.38a28.25,28.25,0,0,1-.4,4.71Z"/><path class="cls-5" d="M310.3,422.84a44.2,44.2,0,0,1-.5-6.65c0-25.22,21.24-45.66,47.44-45.66s47.45,20.44,47.45,45.66a44.2,44.2,0,0,1-.5,6.65Z"/><path class="cls-6" d="M346.73,370.53c-13.1,0-24.8,6.49-32.52,16.66a53.52,53.52,0,0,0-12.44-1.44c-23.25,0-42.1,14.5-42.1,32.38a25.4,25.4,0,0,0,.44,4.71H388.39a50.19,50.19,0,0,0,.44-6.65C388.83,391,370,370.53,346.73,370.53Z"/><path class="cls-5" d="M184.48,326.68c-11-17.22-13.07-38-12.86-52.41a134.85,134.85,0,0,1,3.15-27.46l-.79-.28a135.39,135.39,0,0,0-3.18,27.65c-.22,14.55,1.86,35.55,13,53Z"/><path class="cls-5" d="M177.49,244a11.73,11.73,0,0,1-4.1,8.32,13.61,13.61,0,0,1-2.74-9.37,11.74,11.74,0,0,1,4.1-8.33A13.62,13.62,0,0,1,177.49,244Z"/><path class="cls-5" d="M170,252.11a13.56,13.56,0,0,1,1.85,9.58,12.35,12.35,0,0,1-7.5-5.75,13.53,13.53,0,0,1-1.85-9.57A12.37,12.37,0,0,1,170,252.11Z"/><path class="cls-5" d="M165.82,261.73a13.3,13.3,0,0,1,5.63,7.88,10.92,10.92,0,0,1-8.9-1.58,13.24,13.24,0,0,1-5.62-7.88A10.91,10.91,0,0,1,165.82,261.73Z"/><path class="cls-5" d="M167.12,275.12a9.67,9.67,0,0,1,4.11,6.9,7.73,7.73,0,0,1-7.38-.61,9.64,9.64,0,0,1-4.11-6.9A7.73,7.73,0,0,1,167.12,275.12Z"/><path class="cls-5" d="M176.62,259.25a9.39,9.39,0,0,1,7.95-.46,10,10,0,0,1-5,6.45,9.36,9.36,0,0,1-8,.46A10,10,0,0,1,176.62,259.25Z"/><path class="cls-5" d="M176.33,268.5a9.36,9.36,0,0,1,7.95-.46,10,10,0,0,1-5,6.45,9.34,9.34,0,0,1-7.94.46A10,10,0,0,1,176.33,268.5Z"/><path class="cls-5" d="M168.78,289.82a5.08,5.08,0,0,1,3.19,2.44,4.13,4.13,0,0,1-3.65.85,5,5,0,0,1-3.19-2.44A4.13,4.13,0,0,1,168.78,289.82Z"/><path class="cls-5" d="M179.94,338.84c-25.22-6-44.45-24.68-56.14-39.26A167.45,167.45,0,0,1,104.24,269l-1,.53a169,169,0,0,0,19.69,30.79c11.81,14.73,31.24,33.57,56.77,39.67Z"/><path class="cls-5" d="M104.58,263.41a16.61,16.61,0,0,1,2.8,12.44,15.31,15.31,0,0,1-10.48-6.58,16.7,16.7,0,0,1-2.8-12.44A15.25,15.25,0,0,1,104.58,263.41Z"/><path class="cls-5" d="M103.91,279.08a15.5,15.5,0,0,1,9.76,7.68,15.23,15.23,0,0,1-12.23,1.85,15.39,15.39,0,0,1-9.76-7.68A15.3,15.3,0,0,1,103.91,279.08Z"/><path class="cls-5" d="M107.65,292.93a15.08,15.08,0,0,1,12.12,2.17,16.08,16.08,0,0,1-10.17,7.42,15.1,15.1,0,0,1-12.13-2.17A16.1,16.1,0,0,1,107.65,292.93Z"/><path class="cls-5" d="M117.69,305.53a15.06,15.06,0,0,1,12.12,2.17,16.05,16.05,0,0,1-10.17,7.42A15.07,15.07,0,0,1,107.52,313,16.08,16.08,0,0,1,117.69,305.53Z"/><path class="cls-5" d="M114.69,284.59a16.3,16.3,0,0,1,3.59-11.22A14.31,14.31,0,0,1,123,283.58a16.38,16.38,0,0,1-3.6,11.23A14.28,14.28,0,0,1,114.69,284.59Z"/><path class="cls-5" d="M125.16,297.62a16.41,16.41,0,0,1,3.43-11.29,14.28,14.28,0,0,1,4.87,10.13A16.41,16.41,0,0,1,130,307.75,14.28,14.28,0,0,1,125.16,297.62Z"/><path class="cls-5" d="M133.82,318a6.2,6.2,0,0,1,5.2-.79,6.72,6.72,0,0,1-3,4.53,6.18,6.18,0,0,1-5.19.79A6.74,6.74,0,0,1,133.82,318Z"/><path class="cls-5" d="M246.68,374.46l1.09-.08c-1.57-28.84,9-56,18.18-73.66a191.39,191.39,0,0,1,20.49-31.84l-.8-.82a192.4,192.4,0,0,0-20.63,32C255.77,317.93,245.1,345.31,246.68,374.46Z"/><path class="cls-5" d="M291.17,267.23c-2.49,4.19-6.06,6.8-9.69,7.51a21.07,21.07,0,0,1,2.76-13.47c2.49-4.2,6.07-6.8,9.7-7.51A21.09,21.09,0,0,1,291.17,267.23Z"/><path class="cls-5" d="M277.86,272.25A20.68,20.68,0,0,1,274,285.36a18.32,18.32,0,0,1-4.77-12.23A20.72,20.72,0,0,1,273.1,260,18.39,18.39,0,0,1,277.86,272.25Z"/><path class="cls-5" d="M267.23,281.27a20.64,20.64,0,0,1,1.37,13.58c-3.55-.91-6.84-3.7-8.89-8a20.67,20.67,0,0,1-1.37-13.59C261.89,274.16,265.18,277,267.23,281.27Z"/><path class="cls-5" d="M259.93,303.42a8.58,8.58,0,0,1,1,5.64,5.78,5.78,0,0,1-3.95-3.05,8.64,8.64,0,0,1-1-5.64A5.81,5.81,0,0,1,259.93,303.42Z"/><path class="cls-5" d="M256.78,311.37a8.6,8.6,0,0,1,1,5.65,5.83,5.83,0,0,1-4-3,8.66,8.66,0,0,1-1-5.65A5.81,5.81,0,0,1,256.78,311.37Z"/><path class="cls-5" d="M280.74,285.57a11.46,11.46,0,0,1,9.1,4.86,12.16,12.16,0,0,1-9.51,4.58,11.42,11.42,0,0,1-9.1-4.85A12.2,12.2,0,0,1,280.74,285.57Z"/><path class="cls-5" d="M274.7,296.82a11.42,11.42,0,0,1,9.1,4.85,12.2,12.2,0,0,1-9.51,4.59,11.46,11.46,0,0,1-9.1-4.86A12.16,12.16,0,0,1,274.7,296.82Z"/><path class="cls-5" d="M264.71,312.14a7.42,7.42,0,0,1,5.92,3.16,7.92,7.92,0,0,1-6.19,3,7.44,7.44,0,0,1-5.92-3.16A7.92,7.92,0,0,1,264.71,312.14Z"/><path class="cls-7" d="M152.66,421.74c0-4.79,29,.87,31.4-5.67s-24.83-6.92-24.83-15.77,13.88-2.64,22-2.64-16.08-3.79-16.08-6.92,8.5-1.49,8.5-4.82-44.61-5.83-39.39-14,29.2,2.37,35.79-1.84-35.18-8.8-36.22-15.06,30.78,5.36,35.28.86-50.3-20.69-48-32.59,41.54,15.24,51.35,12.31-49.47-44.68-35.7-61,40.08,53.87,49.06,51.36-11.24-44.32-2.07-51.59,35.48,58.87,37.14,72.45,5-29.21,19.41-34.22.42,26.51,2.92,36.11,14.19-24.63,29.95-22.12-28.49,33.81-24.11,43,38.56-30.66,49.27-20S257.2,390.13,260,398.26s34-5.8,42.92,3.16-33.43,14.65-39.05,14.65-27.1,7.06-6.12,5.67S152.66,426.54,152.66,421.74Z"/><path class="cls-6" d="M235.3,427.29s34.91,1.87,45.08-4.53,2.14-11.38,2.14-11.38,32.28-.7,32.2-8.35-7.91-7.21-7.91-7.21,16.3-11.07,13.26-18c-4.67-10.6-31.21,7.87-31.21,7.87s8.7-10.34,1.67-12.75C271.23,366.33,235.3,427.29,235.3,427.29Z"/><path class="cls-8" d="M320.07,377.84c3,6.91-13.26,18-13.26,18s11.77-.15,9.86,7.29S285.19,413,285.19,413s10.33,2,.16,8.41-50.05,5.86-50.05,5.86Z"/><path class="cls-7" d="M117.55,209.25c0-1.35,2.41-2.39,3.65-1.2s1.19.39,2.4,3a81,81,0,0,0,14.53,20.82c11.39,12,22.67,18,35.47,24-5.28-9.41-8.81-19.45-9.26-29.59-.16-3.69-.07-7.52,1.92-10.91.56-.94,2.7-.75,2.92.31,1.07,5.22-.51,9.17,1.63,18.52,5.1,22.33,25.29,46,44.76,62.6-3.73-28.08-5.54-60,1.14-88.3a126.25,126.25,0,0,1,4.45-13.6c.38-1.07,2.3-.61,2.06.45-.33,1.51-3.51,21-3.71,22.34-3.08,21.56-2.47,45.46-.06,67.24A122.44,122.44,0,0,0,249.39,230c1.4-5.85,1.77-11.89,3.73-17.63.27-.79,1.92-.87,2.13,0,2,8.6-2,23.81-5,32.07a123.92,123.92,0,0,1-28.49,45.17c-.5.52,20.91,131.56,20.33,133.22-1,2.8-7.13,4.76-8.08-.2-.39-2-12.16-81.7-17.47-118.61-2-.87-3.29-2.43-8.45-7-11.95-10.63-23.76-23.85-31.65-36.33-4.74-.21-38.94-13.39-55.91-43.39-.49-.86-2.69-4.93-3-5.83A5.53,5.53,0,0,1,117.55,209.25Z"/><path class="cls-2" d="M227.41,166.77q-.58-6.06-.59-12.36c0-46.8,25.09-84.74,56-84.74s56.05,37.94,56.05,84.74q0,6.3-.59,12.36Z"/><path class="cls-9" d="M164,145.94c-.39-5.69-.59-11.51-.59-17.42,0-66,25.09-119.52,56-119.52s56.05,53.51,56.05,119.52c0,5.91-.2,11.73-.59,17.42Z"/><path class="cls-9" d="M184.5,211a107.68,107.68,0,0,0,.59-11.31c0-42.87-25.09-77.62-56-77.62S73,156.82,73,199.69A107.68,107.68,0,0,0,73.59,211Z"/><path class="cls-2" d="M274.2,219.18q.74-8.53.75-17.43c0-66-31.81-119.51-71-119.51s-71.05,53.51-71.05,119.51q0,8.88.75,17.43Z"/><path class="cls-9" d="M219.65,82.24c19.61,0,37.13,17,48.69,43.6A48.26,48.26,0,0,1,287,122.07c34.82,0,63,38,63,84.75a114.09,114.09,0,0,1-.66,12.36H157.27q-.66-8.53-.67-17.43C156.6,135.75,184.83,82.24,219.65,82.24Z"/><path class="cls-5" d="M99.74,395.2a63.77,63.77,0,0,0,.33-6.54c0-24.76-14.08-44.83-31.46-44.83S37.15,363.9,37.15,388.66c0,2.22.12,4.41.33,6.54Z"/><path class="cls-6" d="M135.34,384.18c.22-3,.34-6.09.34-9.22,0-34.92-14.09-63.23-31.46-63.23S72.76,340,72.76,375c0,3.13.11,6.21.33,9.22Z"/><path class="cls-6" d="M123.83,422.93a63.9,63.9,0,0,1-.34-6.54c0-24.76,14.09-44.84,31.46-44.84s31.46,20.08,31.46,44.84a63.92,63.92,0,0,1-.33,6.54Z"/><path class="cls-5" d="M73.48,422.93c-.28-3-.43-6.09-.43-9.22,0-34.92,17.86-63.23,39.89-63.23s39.88,28.31,39.88,63.23c0,3.13-.15,6.21-.42,9.22Z"/><path class="cls-6" d="M104.1,350.48c-11,0-20.85,9-27.34,23.06a28.59,28.59,0,0,0-10.45-2c-19.55,0-35.39,20.08-35.39,44.84a58.63,58.63,0,0,0,.37,6.54H139.11c.25-3,.38-6.09.38-9.22C139.49,378.79,123.64,350.48,104.1,350.48Z"/><path class="cls-5" d="M1253,285.06c14.2-22.83,16.85-50.39,16.57-69.49a182.87,182.87,0,0,0-4.06-36.41l1-.38a184.6,184.6,0,0,1,4.1,36.67c.28,19.29-2.4,47.13-16.78,70.24Z"/><path class="cls-5" d="M1262,175.36a15.8,15.8,0,0,0,5.27,11,18.49,18.49,0,0,0,3.54-12.44,15.73,15.73,0,0,0-5.28-11A18.4,18.4,0,0,0,1262,175.36Z"/><path class="cls-5" d="M1271.64,186.19a18.43,18.43,0,0,0-2.39,12.7,16,16,0,0,0,9.67-7.62,18.42,18.42,0,0,0,2.39-12.7A16,16,0,0,0,1271.64,186.19Z"/><path class="cls-5" d="M1277.08,198.94a17.62,17.62,0,0,0-7.26,10.44,13.7,13.7,0,0,0,11.47-2.08,17.6,17.6,0,0,0,7.25-10.45A13.73,13.73,0,0,0,1277.08,198.94Z"/><path class="cls-5" d="M1275.4,216.69a12.92,12.92,0,0,0-5.3,9.15,9.74,9.74,0,0,0,9.52-.8,12.92,12.92,0,0,0,5.3-9.15A9.74,9.74,0,0,0,1275.4,216.69Z"/><path class="cls-5" d="M1263.16,195.66a11.79,11.79,0,0,0-10.25-.61,13.18,13.18,0,0,0,6.41,8.55,11.79,11.79,0,0,0,10.25.61A13.18,13.18,0,0,0,1263.16,195.66Z"/><path class="cls-5" d="M1263.53,207.92a11.79,11.79,0,0,0-10.25-.61,13.18,13.18,0,0,0,6.41,8.55,11.79,11.79,0,0,0,10.25.61A13.18,13.18,0,0,0,1263.53,207.92Z"/><path class="cls-8" d="M1262.58,396.71c31.46-11.42,53.47-38.65,66.39-59.49a223.73,223.73,0,0,0,20.75-43l1.39.55a225.62,225.62,0,0,1-20.88,43.3c-13,21-35.29,48.55-67.14,60.11Z"/><path class="cls-8" d="M1348.49,286.9a22.54,22.54,0,0,0-1.83,16.79,19.68,19.68,0,0,0,12.5-10.12,22.59,22.59,0,0,0,1.83-16.79A19.62,19.62,0,0,0,1348.49,286.9Z"/><path class="cls-8" d="M1351.57,307.47a20,20,0,0,0-11.42,11.46,19.22,19.22,0,0,0,15.94.76,20,20,0,0,0,11.42-11.47A19.26,19.26,0,0,0,1351.57,307.47Z"/><path class="cls-8" d="M1348.74,326.24a19,19,0,0,0-15.23,4.53,20.76,20.76,0,0,0,14.09,8.38,19,19,0,0,0,15.23-4.53A20.76,20.76,0,0,0,1348.74,326.24Z"/><path class="cls-8" d="M1337.64,344.23a19,19,0,0,0-15.23,4.52,20.77,20.77,0,0,0,14.09,8.39,19,19,0,0,0,15.23-4.53A20.76,20.76,0,0,0,1337.64,344.23Z"/><path class="cls-8" d="M1338.53,316.21a22.07,22.07,0,0,0-6.19-14.3,19.16,19.16,0,0,0-4.6,14.11,22.15,22.15,0,0,0,6.19,14.31A19.19,19.19,0,0,0,1338.53,316.21Z"/><path class="cls-8" d="M1327,334.83a22.17,22.17,0,0,0-6-14.41,19.05,19.05,0,0,0-4.8,14,22.12,22.12,0,0,0,6,14.42A19.12,19.12,0,0,0,1327,334.83Z"/><path class="cls-8" d="M1318.73,362.83a7.81,7.81,0,0,0-6.77-.32,8.92,8.92,0,0,0,4.42,5.57,7.79,7.79,0,0,0,6.76.32A8.94,8.94,0,0,0,1318.73,362.83Z"/><path class="cls-2" d="M1194.58,369s-24.47-51.45-16.29-62.92c11.3-15.87,25.36,32.81,26,28.53,6.47-40.4,5.12-91.37,35.39-99.09,17.21-4.39-1.14,38.06,1,49s30.76-28.11,48.39-48.77,28.43-9.27,18.21,15.8c-9.88,24.24-45.68,52.64-37.67,55.07s52.95-31.34,59.72-18.89c8.3,15.25-60.92,42.18-54,45.22s39.92-11.24,39.92.91-45.57,15.19-44.38,20.45c1.92,8.5,30.54-13.28,32.78-1.47,2.28,12.07-38.86,13-37.42,22.43.82,5.43,11.18-.25,13.06,7.21,4.27,17-60.56,40.86-60.56,40.86Z"/><path class="cls-9" d="M1218.8,422.94s25.19-40.2,37.52-47.93c13.14-8.23,3.46,15.88,3.46,15.88s26.56-32.8,34.23-26.37,1,14.15,1,14.15,24.24-7.67,28.78,1.2c7,13.62-32.94,25.75-32.94,25.75s17.23-.49,14.23,8.85C1300.51,428.55,1218.8,422.94,1218.8,422.94Z"/><path class="cls-2" d="M1323.75,379.87c-4.54-8.87-28.78-1.2-28.78-1.2s6.71-7.73-1-14.15-29,13.61-29,13.61,2-16.24-14.11-1.67c-11.49,10.41-32.07,46.48-32.07,46.48Z"/><path class="cls-8" d="M1142.9,378.36c-9.84,4.6-7.19,16-7.19,16s-26.68-20.77-36.66-8.65-4.73,35.89,7,39.75,113.48,1.15,113.48,1.15S1151.75,374.23,1142.9,378.36Z"/><path class="cls-9" d="M1219.5,426.52s-44.48-9.13-54.18-18-5.41-12.36-5.41-12.36-17.09-13.46-16.83-22.26,11.41-4.33,11.41-4.33-18.88-24.22-14.4-28.82c8.34-8.58,30.16,16.59,30.16,16.59s-6.48-12,.35-13.87c10.31-2.87,17.88,26.66,17.88,26.66s-1.92-11.66,5.18-10.11C1206.41,362.78,1219.5,426.52,1219.5,426.52Z"/><path class="cls-6" d="M1069.07,275.43l-4.39-10.59c-3.4-7.8-12.11-11.52-19.44-8.31h0c-18.49,8.07-26.53,30.53-18,50.17l6.27,14.36a18,18,0,0,1-1.91,18.09,15.93,15.93,0,0,0-1.58,15.93l3.3,7.57a30.09,30.09,0,0,0,18.8,16.77,18.27,18.27,0,0,1,11.35,10.25l4.67,10.72c5.18,11.85,18.41,17.51,29.57,12.64l6.36-2.78c11.16-4.87,16-18.42,10.83-30.27h0c-8.36-14.17-7.69-24.74-4.73-31.92a42.87,42.87,0,0,0-.41-33.48l-.66-1.51a42.62,42.62,0,0,0-26-23.56C1078.06,287.9,1072.79,284,1069.07,275.43Z"/><path class="cls-8" d="M1151,427.67c-9-11.64-58.18-74-90.25-84.34-35.41-11.46-2,34.06-2,34.06s-62.82-68.68-85.87-62.49c-21.13,5.68,0,48.25,0,48.25s-23.8-23.57-52.66-23.57c-28.09,0,19.62,83.61,22.2,88.09Z"/><path class="cls-5" d="M961.71,292.85a414.07,414.07,0,0,1,55.1,131.92l1.76-.47a416.49,416.49,0,0,0-54.89-130.81c-5.95-9.3-12.38-20.34-23.53-24-.22-.07-.3.26-.1.33C950.24,273.69,956.14,284.15,961.71,292.85Z"/><path class="cls-5" d="M1010.63,426.43a517.38,517.38,0,0,0-105-106.4c-.41-.31-1,.41-.56.73A516.92,516.92,0,0,1,1008.45,427Z"/><path class="cls-5" d="M959.36,268c-.66,1-3.19,3.5-3.93,6.83a14.13,14.13,0,0,0-.13,7,15.3,15.3,0,0,1-3.9-6.74c-1.26-4-.37-9.6,1.19-11.45C955.3,259.43,960,259,961,261S960.69,265.78,959.36,268Z"/><path class="cls-5" d="M953.22,303.77c1-.68,3.44-3.25,6.76-4.06a14.22,14.22,0,0,1,7-.27,15.28,15.28,0,0,0-6.83-3.76c-4-1.18-9.6-.19-11.41,1.41-4.13,2.79-4.46,7.53-2.41,8.41S951,305.15,953.22,303.77Z"/><path class="cls-5" d="M962.49,319.46c1-.68,3.44-3.26,6.75-4.07a14,14,0,0,1,7-.26,15,15,0,0,0-6.82-3.77c-4-1.18-9.6-.19-11.42,1.41-4.12,2.79-4.45,7.53-2.41,8.41S960.31,320.83,962.49,319.46Z"/><path class="cls-5" d="M929.44,355.83c1-.68,3.44-3.26,6.75-4.07a14,14,0,0,1,7-.26,15.1,15.1,0,0,0-6.82-3.77c-4-1.18-9.6-.19-11.42,1.42-4.12,2.79-4.45,7.53-2.41,8.41S927.25,357.2,929.44,355.83Z"/><path class="cls-5" d="M912.55,341c1-.68,3.44-3.26,6.76-4.06a14,14,0,0,1,7-.27,15.28,15.28,0,0,0-6.83-3.76c-4-1.19-9.6-.19-11.41,1.41-4.13,2.79-4.46,7.53-2.41,8.41S910.37,342.32,912.55,341Z"/><path class="cls-5" d="M972.33,285.74c-.81.85-3.71,3-5,6.13a14.12,14.12,0,0,0-1.23,6.87,15.34,15.34,0,0,1-2.78-7.28c-.62-4.17,1.14-9.54,3-11.12,3.34-3.7,8.08-3.37,8.66-1.22S974,283.77,972.33,285.74Z"/><path class="cls-5" d="M986,303.52c-1.14.61-5.15,1.71-7.16,4.71a12,12,0,0,0-2.42,7.14c.21.2-2.86-4.4-2.73-9.32-.28-4.92,2.64-10.16,5.21-11.13,4.77-2.69,10.86-.29,11.36,2.36S988.34,302,986,303.52Z"/><path class="cls-5" d="M1000.29,330.46c-1.23.4-5.36.82-7.85,3.43a12.23,12.23,0,0,0-3.59,6.63c.18.23-2.07-4.82-1.11-9.64.54-4.9,4.3-9.57,7-10.09,5.15-1.86,10.75,1.54,10.8,4.23S1002.9,329.39,1000.29,330.46Z"/><path class="cls-5" d="M957.86,349.22c-.9.56-4.1,1.69-5.56,4.24a9.84,9.84,0,0,0-1.56,5.94c.18.15-2.58-3.42-2.75-7.43-.51-4,1.57-8.4,3.6-9.34,3.72-2.46,8.82-.85,9.38,1.27S959.72,347.87,957.86,349.22Z"/><path class="cls-5" d="M940.91,262.86a10.89,10.89,0,0,0,.19,4.67,8.4,8.4,0,0,0,2.15,3.54,9,9,0,0,1-4.09-2.15c-1.91-1.62-3.23-4.7-3-6.12,0-2.95,2.27-4.66,3.38-3.94S940.88,261.33,940.91,262.86Z"/><path class="cls-5" d="M900.39,325.8a10.92,10.92,0,0,1,3.82-2.7,8.24,8.24,0,0,1,4.11-.46,9,9,0,0,0-4.2-1.93c-2.44-.52-5.69.31-6.69,1.33-2.32,1.84-2.31,4.65-1.06,5.08S899.16,326.71,900.39,325.8Z"/><path class="cls-5" d="M906.6,314.25a10.77,10.77,0,0,0-.19,4.68,8.28,8.28,0,0,0,1.85,3.7,9,9,0,0,1-3.91-2.48c-1.76-1.77-2.83-4.94-2.51-6.34.27-2.94,2.65-4.46,3.69-3.65S906.69,312.73,906.6,314.25Z"/><path class="cls-5" d="M910.92,388.86c26.21,2.87,50.61,14.44,74.11,25.72,15.84,7.61,15.05,9.77,18.27,10.91a.65.65,0,0,0,.79-.89c-1.24-2.46-4.49-4.13-6.76-5.54a87.42,87.42,0,0,0-8.18-4.46c-6-2.9-12.12-5.52-18.22-8.16-12.4-5.39-25-10.46-38.1-13.89a134.63,134.63,0,0,0-21.89-3.91.11.11,0,0,0,0,.22Z"/><path class="cls-5" d="M934.54,380.73c-.17,1.08-1.29,4.2-.6,7.28a13,13,0,0,0,2.65,5.9,14.09,14.09,0,0,1-5.94-4.12c-2.64-2.87-4.1-7.89-3.51-10.06.62-4.57,4.42-6.79,6-5.46S934.78,378.36,934.54,380.73Z"/><path class="cls-5" d="M957.63,389c-.17,1.07-1.29,4.2-.6,7.28a13.12,13.12,0,0,0,2.64,5.89,14.12,14.12,0,0,1-5.93-4.11c-2.64-2.88-4.1-7.9-3.52-10.07.63-4.57,4.42-6.79,6-5.45S957.87,386.62,957.63,389Z"/><path class="cls-5" d="M981.09,399.46c-.18,1.07-1.3,4.19-.6,7.28a13.12,13.12,0,0,0,2.64,5.89,14.09,14.09,0,0,1-5.93-4.12c-2.64-2.87-4.1-7.89-3.52-10.06.62-4.57,4.42-6.79,6-5.46S981.33,397.08,981.09,399.46Z"/><path class="cls-5" d="M927.65,402.3c.47-.88,1.39-3.81,3.62-5.7a12,12,0,0,1,5.24-2.86,12.92,12.92,0,0,0-6.67-.28c-3.55.64-7.43,3.53-8.21,5.45-2.09,3.72-.53,7.47,1.37,7.37S926.5,404.19,927.65,402.3Z"/><path class="cls-5" d="M951.66,410.8c.48-.88,1.39-3.81,3.62-5.7a12,12,0,0,1,5.24-2.86,12.9,12.9,0,0,0-6.67-.28c-3.55.64-7.43,3.53-8.2,5.45-2.1,3.72-.54,7.47,1.36,7.36S950.51,412.69,951.66,410.8Z"/><path class="cls-5" d="M909.36,393.55a10.09,10.09,0,0,1,3-3.1,7.84,7.84,0,0,1,3.67-1.11,8.4,8.4,0,0,0-4.15-1c-2.31-.07-5.13,1.23-5.87,2.34-1.81,2.05-1.32,4.62-.11,4.8S908.39,394.59,909.36,393.55Z"/><path class="cls-5" d="M912.13,382.26a10,10,0,0,0,1,4.23,7.67,7.67,0,0,0,2.54,2.86,8.36,8.36,0,0,1-4.09-1.27c-2-1.16-3.72-3.74-3.78-5.07-.46-2.69,1.29-4.63,2.42-4.15S911.84,380.87,912.13,382.26Z"/><polygon class="cls-10" points="562.83 422.56 558.54 422.56 567.24 341.09 571.53 341.09 562.83 422.56"/><polygon class="cls-10" points="611.29 422.56 615.58 422.56 606.88 341.09 602.59 341.09 611.29 422.56"/><rect class="cls-11" x="353.29" y="317.19" width="10.79" height="21.84" transform="translate(717.38 656.23) rotate(180)"/><polygon class="cls-12" points="328.99 322.27 554.82 320.81 555.67 278.85 318.83 277.9 328.99 322.27"/><rect class="cls-12" x="351.73" y="335.26" width="260.99" height="11.67" transform="translate(964.45 682.18) rotate(180)"/><rect class="cls-10" x="323.75" y="335.26" width="47.18" height="11.67" transform="translate(694.68 682.18) rotate(180)"/><polygon class="cls-10" points="318.83 277.9 328.99 322.27 337.65 322.21 327.61 277.9 318.83 277.9"/><polygon class="cls-10" points="323.12 422.56 318.82 422.56 327.52 341.09 331.81 341.09 323.12 422.56"/><polygon class="cls-10" points="371.57 422.56 375.86 422.56 367.17 341.09 362.88 341.09 371.57 422.56"/><path class="cls-13" d="M595,398.23s.94,10.25.32,13.59a12.78,12.78,0,0,1-.47,1.64c-.64,1.87,1.1,7.59,1.1,7.59l23.36.09c1.27,0,.42-.8-.62-1.54-1.69-1.21-3.06-2-8.45-4.53-.35-.17-1.63-1-2.1-1.23a16.25,16.25,0,0,1-3.37-2.91c-1.7-1.84-2-10.87-2-10.87Z"/><path class="cls-14" d="M608.1,413.83a21.22,21.22,0,0,1-13.3-.35c-.63,1.87-1.83,8.19-1.12,8.19,5.86,0,10.82,1.11,27.59.85.61,0,.53-2.08.14-2.53C620.33,418.73,608.56,414.11,608.1,413.83Z"/><path class="cls-13" d="M621.39,381.24s5.11,8.93,5.94,12.23a12,12,0,0,1,.24,1.68c.2,2,4.16,6.46,4.16,6.46L653,392c1.16-.52,0-.9-1.19-1.15-2.05-.4-3.62-.56-9.57-.61-.39,0-1.89-.19-2.42-.25a16.42,16.42,0,0,1-4.28-1.24c-2.31-1-6.29-9.08-6.29-9.08Z"/><path class="cls-11" d="M541.51,212.11c-2.8-5.69-9.74-8.91-16.07-8.92C505.35,203.17,502.8,229,490,239c-3.83,3-8.11,5.44-11.76,8.64a17.35,17.35,0,0,0,1,6.21,26.23,26.23,0,0,0,3.11,5.83l5.41-3.14-2.35,6.84c4.82,5,11.25,8.72,17.52,12.17a63.36,63.36,0,0,0,27.53,7.13c3.53-7.13,6-15,8.73-22.4,3.25-8.84,6-18,6.38-27.45A42,42,0,0,0,541.51,212.11Z"/><path class="cls-14" d="M639.82,390a21.21,21.21,0,0,1-12.24,5.2c.19,2,1.73,8.21,2.38,7.92,5.33-2.43,10.3-3.48,25.45-10.69.55-.26-.38-2.1-.92-2.36C653,389.36,640.36,390,639.82,390Z"/><path class="cls-13" d="M578.08,333c-1.45-.23-5-2.75-6.23-3-1-.18-3.05-.5-3.94-.63-1.09-4.07-6.63-26.27-7.25-32.77-.67-7.05-5.65-37.54-5.65-37.54L542.1,261.4s5.36,23.46,6.84,34.83c1.28,9.77,12,31.74,13.36,34.06v.17c.21,3.44,1.87,2.29,1.87,2.29l2.7.69s9.55.92,10.17,1.15S579.54,333.21,578.08,333Z"/><path class="cls-2" d="M545.05,242.93c9.12,3.09,13,26.2,13,26.2s-14.31,4-18,1.9c0,0-4.16-18.45-5.65-17.81Z"/><path class="cls-2" d="M535.1,241.16h0A3.35,3.35,0,0,0,536,241c1.7-.3,6.15.74,9,2,3.51,1.47,5.62,14.52,5.3,28.71-.13,2.17-1.76,35.57-1.93,35.68-4.18,2.69-29.1,4-30.84,1.71s-3.07-41.89-3.91-43.28L512,241.53C514.94,240.65,530.61,241.13,535.1,241.16Z"/><path class="cls-13" d="M524.87,232.24s1.63,8.4,1.3,11.72,1.24,14,8.26,14,1.33-13.58.67-16.83-.82-13.3-.82-13.3Z"/><path class="cls-15" d="M534.43,232.9c-.11-2.75-.15-5-.15-5l-9.41,4.38s.34,1.72.67,3.91C529.66,237,532.64,235.45,534.43,232.9Z"/><path class="cls-13" d="M521.44,209.05a11.62,11.62,0,0,0-5,6.37c-1.33,4.36.18,15.61,9.54,18.32s13.43-6.19,11.5-13.15S531.4,204.8,521.44,209.05Z"/><path class="cls-13" d="M538.7,217.89c-.19,1.87-1.22,3.3-2.31,3.19s-1.82-1.71-1.64-3.58,1.22-3.3,2.31-3.19S538.88,216,538.7,217.89Z"/><path class="cls-11" d="M522.53,208.48s-1.69,12.55-5.75,14.81-2.36,7.84-2.36,7.84-3.68-12.93-.47-17.08A17.9,17.9,0,0,1,522.53,208.48Z"/><path class="cls-13" d="M519.18,225.1c1.1,1.63,1.1,3.56,0,4.3s-2.89,0-4-1.61-1.1-3.56,0-4.31S518.08,223.46,519.18,225.1Z"/><path class="cls-16" d="M532.83,225.79l-6.6,1.67a3,3,0,0,0,3.71,1.86C533.51,228.53,532.83,225.79,532.83,225.79Z"/><path class="cls-13" d="M473.72,333.61c.11-.31.38-.32.64-.34a65.52,65.52,0,0,0,7.79-.83,6,6,0,0,0,1.25-.36,3.31,3.31,0,0,1,2.15-.15,4.1,4.1,0,0,0,1.21.09c1.31,0,5-1.44,6.93-1.83a1.15,1.15,0,0,0,.87-.87c1.65-7.55,5.18-24.47,5.54-30,.45-7.09,4.32-39.08,4.32-39.08l13.16,3.23s-4.63,23.67-5.75,35.11c-.87,8.84-9.08,27.79-11.67,33.24-1.22,4-4.24,4.25-4.93,4.35a1.69,1.69,0,0,0-1,.59,7.26,7.26,0,0,1-1.6,1.48,3.77,3.77,0,0,0-1.09,1.16c-.53.82-1,1.69-1.46,2.55-.31.57-.64.76-1.13.64a1,1,0,0,1-.79-1.13,5,5,0,0,1,.7-2.59,1.4,1.4,0,0,0-.17-1.86,5.64,5.64,0,0,0-1-1.06,1.64,1.64,0,0,0-1.35-.44,21,21,0,0,1-2.83.61l-.78.19-.43.11c-.07,0-1.45.21-1.93.23s-1,.05-1.52.1a9,9,0,0,1-1.52-.18,1.88,1.88,0,0,1-1.24-.45c-.14-.13-.28-.26-.22-.48a.47.47,0,0,1,.41-.33,18.33,18.33,0,0,0,1.91-.39c-.48,0-2,0-2.47,0a2.25,2.25,0,0,1-1.68-.67C473.83,334.09,473.62,333.91,473.72,333.61Z"/><path class="cls-2" d="M512.37,241.44c-6.45-1.17-12.27,27.69-12.27,27.69s14.31,4,18,1.9c0,0,4.16-18.45,5.65-17.81Z"/><path class="cls-17" d="M548.76,304.94v5.27l49.51,10.41,12.29,36.92-6.85-4.68,1.58,56.84-10.41.07s-18-47.69-12.13-71.67l-54.79.84s-24.84-9.59-12-38.51Z"/><path class="cls-18" d="M548.76,310.21s51.36.35,55,3.15,31,72.61,31,72.61l-11.94,4.46s-23.75-39.6-25-42.42-10.46-23.48-14-25.58S548.76,310.21,548.76,310.21Z"/><path class="cls-19" d="M453,289.65c-4.52-1.72-42.46-16.13-43.94-17.23S387.6,247.3,387.6,247.3l13.84-5.46,17.72,22.77c1.31.76,26,13.92,26,13.92s4.47,2.53,7.19,3.86c.76-.06,1.48-.13,2.08-.21a18.24,18.24,0,0,0,3.35-1,20.1,20.1,0,0,1,4.32-1.13c.73,0,2.22.06,3.12.11s1.95.07,2.42.15a4.58,4.58,0,0,0,1.38-.21.77.77,0,0,1,.83,1.17,3.3,3.3,0,0,1-1.83,1c-1.6.46-4.22.22-4.14.46s4.14,2.12,4.59,2.36,5.17,2.45,5.94,3.18.45,1.34-.16,1.36S467,287,467,287s-.86-.32-.69.14,6.29,2.8,7.13,3.32,1.17,1.27.3,1.6c-1.07.39-7.44-2.5-7.44-2.5s-.81-.35-.82,0,5.21,2.28,5.6,2.69a.74.74,0,0,1-.5,1.29c-1,.15-6.67-2.49-6.67-2.49s-.49-.07-.39.2,4.44,2.2,4.74,2.78a.51.51,0,0,1-.18.72c-.81.7-4.77-1.77-6.92-2.34S453.11,289.7,453,289.65Z"/><path class="cls-20" d="M401.26,231.24s3.41.63,9.2,10.6c5.4,9.31,10.19,19.74,10.19,19.74L411,271.79s-7.12-21.89-7.73-22.6S401.26,231.24,401.26,231.24Z"/><path class="cls-13" d="M433.83,406.25s-.53,8.71-.53,8.73a48.58,48.58,0,0,0-.94,4.85c0,3.78,17.76-3.21,13.78-4.88-.36-.16-2.25-1.3-2.37-2.59-.18-2-.65-6-.65-6Z"/><path class="cls-13" d="M464,406.25s-.52,8.71-.52,8.73a46,46,0,0,0-.95,4.85c0,3.78,17.76-3.21,13.78-4.88-.36-.16-3.05-.64-3.17-1.92-.18-2-.52-8.11-.52-8.11Z"/><path class="cls-9" d="M406.29,314.86l42.46.18s19.18-.51,22.21,6.19,3.24,86.12,3.24,86.12-10,.57-10.56,0L451,363a36.18,36.18,0,0,1-1.23-13.3l1.1-11.85-17.52.91s-19.87-.32-26.41-7S406.29,314.86,406.29,314.86Z"/><path class="cls-9" d="M377.5,310.13,423.16,313s19.65,1.61,22.68,8.31-1,86.08-1,86.08-11.55.51-11.53,0-5.45-32.68-8.06-44.93a43.26,43.26,0,0,1-.86-11.85l1.19-12.9s-48.45-.45-50.56-2.59C368.47,328.42,377.5,310.13,377.5,310.13Z"/><path class="cls-7" d="M401.26,231.24c-6.62-.58-18.47.92-18.47.92s-7.55.36-9.82,1.39c-3.33,1.51-9.81,3.26-7.21,18.7,1.86,11.05,6,47.28,8.63,65.85L420.65,313C411.07,276.25,407.52,231.78,401.26,231.24Z"/><path class="cls-13" d="M386.12,217.78l-4.26,14.46s7.25,8.34,12.27,7.53c4.22-.68,2.26-6.77,2.26-6.77s-1-8.2.21-12.24S386.12,217.78,386.12,217.78Z"/><path class="cls-18" d="M387.85,222.83a26.58,26.58,0,0,0,8.14,3.83,21.66,21.66,0,0,1,.61-5.9c.58-1.87-1.61-2.64-4.13-2.94-3.34-.17-6.35,0-6.35,0l-.82,2.78A11.66,11.66,0,0,0,387.85,222.83Z"/><path class="cls-13" d="M385.13,195.16c-.33-.14-3.82,17.54.39,22.74s12.91,7.35,16.3,3.69c3.76-4.06,4.77-23.24-1.93-28.73S385.13,195.16,385.13,195.16Z"/><path class="cls-11" d="M397.81,183.15a19.4,19.4,0,0,0-10.6,5.25c-2.48.13-5.92,1.3-9.73,6.86-4.7,6.84-2.05,14.92,2.66,19.1s4.37,8.64,4.37,8.64l.92-2.26a13,13,0,0,0,1-5.4,10.78,10.78,0,0,0-.6-3.32c-1-2.66,2.83-4.14,4-6.22.91-1.6,1.19-5.38,2.63-8l1.65-2s3.69-2.53,7.08-1.54S404.86,182.16,397.81,183.15Z"/><path class="cls-13" d="M389.37,209c-.1,2.18-1.19,3.9-2.43,3.84s-2.18-1.87-2.08-4.05,1.19-3.9,2.44-3.84S389.47,206.78,389.37,209Z"/><path class="cls-13" d="M360.34,261.58l12.42,3.85s-2.34,10.83-2.37,12.12c0,0,21.16,11.32,30,14.87l-.24,7.75c-1.73-.65-3.12-1.31-4-1.59-1.69-.55-28.75-8.85-28.75-8.85s-10.66-3.8-11-5.85S360.34,261.58,360.34,261.58Z"/><path class="cls-20" d="M356.75,268.81s6-24.27,9.19-30.49,10.21-7,14.74-2.79-8.47,36.59-8.47,36.59Z"/><path class="cls-21" d="M446.1,414.14s-4.17,1.16-6.3,1.44-5-2.14-6.47-1.48-1.59,7.23-1.59,7.23,22.36,1.86,28.65-.06C462.88,420.51,454.63,416.83,446.1,414.14Z"/><path class="cls-21" d="M476.26,414.14a64.52,64.52,0,0,1-6.31,1.44c-2.13.29-4.95-2.14-6.46-1.48-1.66.72-1.6,7.23-1.6,7.23s22.36,1.86,28.65-.06C493,420.51,484.78,416.83,476.26,414.14Z"/><path class="cls-16" d="M395.12,215l6.14,0a2.71,2.71,0,0,1-2.85,2.46C395.12,217.54,395.12,215,395.12,215Z"/><path class="cls-21" d="M583.83,267.75a1.94,1.94,0,0,0,0,.24l.15,1.46c0,.13,0,.27,0,.4l-13.39,3.95-9.6-1-.44-2.34.75-.17.72.47.75-.41.73.45.75-.43.74.43.73-.44.75.42.72-.46.76.4.72-.47.76.38.7-.49.78.37.69-.51.79.35.67-.53.8.32.66-.55.8.3.64-.57.82.28.62-.6.82.24.6-.61.83.2.57-.65.84.16.53-.67.85.11.49-.71.75-.14Z"/><path class="cls-11" d="M584,269.66c.16-.07.44,9.35,1.09,11.77s2.25,11.09,2.25,11.09l-23.22,3.66s-.6-12.46-1.32-16.28-1.91-7-1.74-7.09S578.57,272.09,584,269.66Z"/><path class="cls-22" d="M564.74,284.5c.53,2.82,5.1,4.33,10.2,3.36s8.81-4,8.28-6.85-5.11-4.33-10.21-3.36S564.21,281.68,564.74,284.5Z"/><path class="cls-23" d="M535.72,286.06a6.64,6.64,0,0,0,4.31-1.79c.86-.81,3.08-2.28,5.05-1.81,3.57.86,4.4,4.82,1.88,8.05-2.21,2.82-10.83,6.86-14.28.92C530.26,287.28,533,286.18,535.72,286.06Z"/><path class="cls-18" d="M546.62,287.72a5.67,5.67,0,0,1-2.13-1.05,9,9,0,0,1-2-1.65c-.15-.17.09-.37.26-.28.74.41,1.44.9,2.13,1.37a8.66,8.66,0,0,1,1.91,1.29.2.2,0,0,1-.18.32Z"/><path class="cls-18" d="M545,289.47c-1.23.17-3.48-1.89-4.33-2.81-.2-.22.14-.6.37-.39a16,16,0,0,0,2.08,1.58c.61.4,1.58.72,2,1.33a.18.18,0,0,1-.11.29Z"/><path class="cls-18" d="M541.76,290.71a4.28,4.28,0,0,1-1-1.11c-.36-.44-.78-.83-1.13-1.27a.44.44,0,0,1,.6-.64,5,5,0,0,1,2,2.76.27.27,0,0,1-.42.26Z"/><path class="cls-18" d="M539.31,291.39a3.4,3.4,0,0,1-.94-2c0-.5,1.1,0,1.32,1.82a.22.22,0,0,1-.38.17Z"/><path class="cls-18" d="M537.53,289.9c.51,1.5-.39,1.53-.52,1.17a2,2,0,0,1,0-1.16.26.26,0,0,1,.48,0Z"/><path class="cls-23" d="M537.45,292.24s-1.08,5-8.28,5.95c-6.63.84-8.52-5.95-5.39-7.4s6.75-2.08,8.42-3.42C535.27,284.92,538.6,289.63,537.45,292.24Z"/><path class="cls-21" d="M526.58,286.86a4.92,4.92,0,0,1,1,1.92,5.35,5.35,0,0,1-1.07,4.71c-2.69,3.34-11.07,4.22-11-.34s4.84-2.42,6.58-4.21c.78-.81,1.06-1.94,2-2.5A2.2,2.2,0,0,1,526.58,286.86Z"/><path class="cls-18" d="M524.73,288.52a4.49,4.49,0,0,1,1.13,1.13c.28.4.66.84.55,1.36a.27.27,0,0,1-.32.18c-.44-.18-.59-.61-.83-1s-.6-.89-.86-1.36c-.11-.2.12-.46.33-.32Z"/><path class="cls-18" d="M523.76,289.63a7.44,7.44,0,0,1,1.54,2.77.28.28,0,0,1-.47.19,4.25,4.25,0,0,1-.72-1.26c-.24-.47-.51-.93-.73-1.42-.1-.22.18-.5.38-.28Z"/><path class="cls-18" d="M522.16,290.43a12.75,12.75,0,0,1,1.07,2.92.27.27,0,0,1-.45.18,8.28,8.28,0,0,1-1-2.93c-.06-.24.3-.41.42-.17Z"/><path class="cls-18" d="M520.71,291.22a3.41,3.41,0,0,1,.38,1c.24.85.4,1.29.07,1.44a.39.39,0,0,1-.58-.24,8.31,8.31,0,0,1-.37-2.11.27.27,0,0,1,.5-.13Z"/><path class="cls-18" d="M519,291.92c.48.46.73,1.32.32,1.52a.37.37,0,0,1-.45,0c-.31-.28,0-.7-.24-1.21a.23.23,0,0,1,.37-.28Z"/><path class="cls-21" d="M530.46,286.54c1.12-1.57,3.26-1.39,5.76-.64,2.15.65,6.52,1.37,7.67,1.56s5.59.34,7.83.19c2.6-.17,4.73.13,5.47,1.91s1.18,6.11-12.87,5l-2.43-.28C527.94,292.23,529.35,288.11,530.46,286.54Z"/><path class="cls-18" d="M527.23,285.59c1.08-.76,2-.71,5.73,1.11a24.13,24.13,0,0,0,3.43,1.31,39,39,0,0,0,14.32,1.61,23.74,23.74,0,0,0,3.63-.5c4-.95,4.95-.79,5.83.19s.81,4.14-3.86,4.66-13.28,1.37-13.38,1.18a7.89,7.89,0,0,1,0-1,5.83,5.83,0,0,1-.22,1c-.13.16-8.33-2.58-12.77-4.14S526.15,286.34,527.23,285.59Z"/><path class="cls-21" d="M530,291c1.11-1.57,3.26-1.39,5.75-.64a78.08,78.08,0,0,0,7.68,1.56c1.16.08,5.59.35,7.83.2,2.6-.18,4.73.12,5.47,1.9s1.18,6.11-12.87,5l-2.43-.27C527.44,296.68,528.84,292.57,530,291Z"/><path class="cls-24" d="M538.36,292.69a3.88,3.88,0,0,0,3.23-1.18A6.38,6.38,0,0,0,542,291l.18-.23a3.16,3.16,0,0,1,1.79-1.15,1.85,1.85,0,0,1,1.71.52,3.66,3.66,0,0,1,.3.6,3.93,3.93,0,0,0,3.51,2.78c2.22.18,3.19-2.29,3.51-3.1l.07-.19a1.16,1.16,0,0,1,1.41-.32,5.3,5.3,0,0,1,1.85,1.66.9.9,0,1,0,1.39-1.13,6.59,6.59,0,0,0-2.57-2.2,2.89,2.89,0,0,0-3.73,1.26c0,.07-.06.16-.1.26-.37.95-.9,2-1.68,2-1.31-.11-1.63-.85-2-1.71a4.36,4.36,0,0,0-.58-1,3.63,3.63,0,0,0-3.4-1.13,4.93,4.93,0,0,0-2.86,1.78c-.08.09-.15.19-.22.28a3,3,0,0,1-.31.38,2,2,0,0,1-3.32-.54,4.62,4.62,0,0,1-.29-.95,4.78,4.78,0,0,0-.79-1.92,3.65,3.65,0,0,0-4.4-.71.9.9,0,0,0,.8,1.61,1.87,1.87,0,0,1,2.18.22,3.05,3.05,0,0,1,.46,1.22,6.5,6.5,0,0,0,.4,1.28,3.88,3.88,0,0,0,2.87,2.18Z"/><polygon class="cls-10" points="448.84 421.3 440.96 421.3 456.92 309.62 464.8 309.62 448.84 421.3"/><polygon class="cls-10" points="537.79 421.3 545.67 421.3 529.71 309.62 521.83 309.62 537.79 421.3"/><polygon class="cls-10" points="685.93 421.3 678.05 421.3 694.01 309.62 701.89 309.62 685.93 421.3"/><polygon class="cls-10" points="774.88 421.3 782.76 421.3 766.8 309.62 758.93 309.62 774.88 421.3"/><path class="cls-23" d="M741.05,279.58s-.29,6.94-9.64,9.78c-8.61,2.62-12.66-6-8.84-8.61s8.49-4.29,10.41-6.44C736.5,270.35,742,275.86,741.05,279.58Z"/><path class="cls-21" d="M725.39,274.9a6.62,6.62,0,0,1,1.73,2.33,7.15,7.15,0,0,1-.36,6.49c-2.81,5-13.73,8.12-14.66,2s5.88-4.31,7.78-7.09c.85-1.25,1-2.81,2.14-3.78A3,3,0,0,1,725.39,274.9Z"/><path class="cls-21" d="M738.89,274.61a8.94,8.94,0,0,0,5.8-2.41c1.16-1.1,4.15-3.08,6.8-2.44,4.82,1.15,5.93,6.5,2.53,10.84-3,3.81-14.58,9.25-19.23,1.25C731.53,276.25,735.19,274.77,738.89,274.61Z"/><path class="cls-18" d="M753.57,276.85a7.53,7.53,0,0,1-2.87-1.43,12.1,12.1,0,0,1-2.68-2.21c-.21-.24.11-.51.35-.37,1,.54,1.93,1.2,2.87,1.83a11.73,11.73,0,0,1,2.57,1.74.27.27,0,0,1-.24.44Z"/><path class="cls-18" d="M751.38,279.2c-1.65.24-4.68-2.54-5.82-3.78-.28-.3.18-.82.49-.53a21.31,21.31,0,0,0,2.8,2.13c.83.54,2.13,1,2.68,1.79a.24.24,0,0,1-.15.39Z"/><path class="cls-18" d="M747,280.87a5.8,5.8,0,0,1-1.43-1.49c-.48-.59-1-1.12-1.52-1.71a.6.6,0,0,1,.81-.87c1.08.82,2.54,2.33,2.7,3.73a.36.36,0,0,1-.56.34Z"/><path class="cls-18" d="M743.73,281.79a4.56,4.56,0,0,1-1.28-2.68c0-.68,1.48,0,1.79,2.46a.29.29,0,0,1-.51.22Z"/><path class="cls-18" d="M741.32,279.78c.68,2-.52,2.07-.7,1.57a2.68,2.68,0,0,1,.06-1.56.35.35,0,0,1,.64,0Z"/><path class="cls-18" d="M723.31,277.52a6,6,0,0,1,1.76,1.25c.47.47,1.07,1,1,1.68a.35.35,0,0,1-.38.31c-.62-.14-.92-.67-1.33-1.12s-1-1.05-1.45-1.62c-.19-.24.06-.64.36-.5Z"/><path class="cls-18" d="M722.27,279.22c.72.57,2.46,2.39,2.69,3.33.08.33-.34.53-.59.36a5.86,5.86,0,0,1-1.24-1.51c-.43-.58-.89-1.13-1.29-1.72-.19-.28.13-.71.43-.46Z"/><path class="cls-18" d="M720.34,280.65a16.83,16.83,0,0,1,2.09,3.62c.05.28-.34.56-.57.35a11,11,0,0,1-2-3.65c-.14-.31.31-.62.52-.32Z"/><path class="cls-18" d="M718.59,282a4.79,4.79,0,0,1,.75,1.3c.5,1.06.81,1.62.41,1.9a.53.53,0,0,1-.82-.19,11,11,0,0,1-1-2.73.36.36,0,0,1,.63-.28Z"/><path class="cls-25" d="M729.15,299.73h16.42a17.14,17.14,0,0,0,17.14-17.14H712A17.14,17.14,0,0,0,729.15,299.73Z"/><path class="cls-18" d="M729.15,299.73h16.42a17.14,17.14,0,0,0,17.14-17.14H712A17.14,17.14,0,0,0,729.15,299.73Z"/><path class="cls-14" d="M756.15,282.59h6.56a17.14,17.14,0,0,1-17.14,17.14H739A17.14,17.14,0,0,0,756.15,282.59Z"/><path class="cls-18" d="M487,285.13h8.75a9.13,9.13,0,0,1,9.13,9.13v0a0,0,0,0,1,0,0h-27a0,0,0,0,1,0,0v0A9.13,9.13,0,0,1,487,285.13Z" transform="translate(982.72 579.38) rotate(180)"/><path class="cls-14" d="M501.37,285.13h3.49a9.13,9.13,0,0,1-9.13,9.13h-3.49A9.13,9.13,0,0,0,501.37,285.13Z"/><path class="cls-2" d="M487,299.93h8.74a9.13,9.13,0,0,0,9.13-9.13h-27A9.14,9.14,0,0,0,487,299.93Z"/><path class="cls-2" d="M487,299.93h8.74a9.13,9.13,0,0,0,9.13-9.13h-27A9.14,9.14,0,0,0,487,299.93Z"/><path class="cls-2" d="M501.37,290.8h3.49a9.13,9.13,0,0,1-9.13,9.13h-3.49A9.13,9.13,0,0,0,501.37,290.8Z"/><path class="cls-26" d="M589.25,290c-.22,3.72-5.13,7.24-10.07,7.24s-9.66-3.7-9.66-7.43c0-5.36,2.78-5.35,6.31-5.06.67.06,1.37.13,2.08.17.42,0,.84,0,1.27,0s.88,0,1.33-.06,1.08-.09,1.61-.15C586.08,284.32,589.6,283.84,589.25,290Z"/><path class="cls-6" d="M576.64,279.58h0v0Z"/><path class="cls-6" d="M584,282.45a.66.66,0,0,0-1,0c.68,0,.37.8-.2,1.37-.35.35-2.88.23-3.77.05a.47.47,0,0,0-.17,0c.65-1.91-.16-6.23-2.68-5.47l.43,1.19a.48.48,0,0,1,.27-.09c1-.12,2,2.87,1.68,4.35-1.52,0-4.2.79-4.49.31s.54-.75.54-.75l.81.22s-.78-1.15-1.57-.87a1.22,1.22,0,0,0-.68,1.95c.24.24,2.62.25,3.78.24a5.37,5.37,0,0,0-2.34,1.83c-.75,1.18.81,2.83.81,2.83s-.84-1.64.06-2.54a17.2,17.2,0,0,1,2.76-2l.09,4.11a3.24,3.24,0,0,0,.9-2.37A5.13,5.13,0,0,0,579,285l.83.07a9.25,9.25,0,0,1,1.88.8c.94.57-.48,2.11-.48,2.11a2.17,2.17,0,0,0,1.11-1c.76-1.38-.08-1.75-.77-2.05a17.46,17.46,0,0,0,1.78-.17C584.65,284.53,584.51,282.93,584,282.45Z"/><rect class="cls-27" x="448.17" y="299.3" width="87.61" height="10.32"/><rect class="cls-10" x="533.75" y="299.3" width="239.52" height="10.32"/><path class="cls-5" d="M627.18,294.29s5.75-14.51,5.49-17-2.49-3.7-3.78-.88-1.76,5.93-2.75,4.82,2.49-12.81-1.45-13.57-1.4,15-3,14.63-2.38-17.16-6.58-15.8,2.75,17,1.14,17-4.2-14.86-8.87-12.57,5.89,13.71,4.2,15.62-8.4-12.1-12.7-8.1,10.61,12.09,10.06,12.72-12.76-9.43-15.45-5.62,9.45,5.8,8.71,7.05-7-.82-6.59,1.65,13.59,2.41,13.59,2.41Z"/><path class="cls-5" d="M651.76,288c-1.27-.54-1.83-1.48-.83-2.45a3.55,3.55,0,0,1,5.07.56,3.79,3.79,0,0,1-.09,4.09,4.29,4.29,0,0,1-1.56,1.49,4.67,4.67,0,0,1-2.05.63l.16.69a5.55,5.55,0,0,0,1.16-.34,5.66,5.66,0,0,0,2.76-2.25s1.61-2.53.17-4.65c-1.5-2.28-5.4-2.43-6.81-.23-.87,1.34,0,2.77,1.55,3.44Z"/><path class="cls-27" d="M649.15,292.62s-9.23-.71-10.12-1-.66-2.18-4.11-2.83-5.54.41-5.95,2.09,2,3.06,2.91,1.93,1.15-2.43,3.16-2.2a6.61,6.61,0,0,1,3.52,1.84Z"/><path class="cls-21" d="M617.21,290.31s1.1,6.49,9.95,5.52c9-1,12,2,19.62,1.63C653,297.18,661,289,657.91,279S618.7,265.48,617.21,290.31Z"/><path class="cls-18" d="M617.23,289.87a3.14,3.14,0,0,0,.18,1.46c.66,1.76,2.91,5.64,9.79,4.89,9-1,11.92,1.65,19.59,1.25,6.18-.32,14.29-7.75,11.31-16.79S619.61,268.17,617.23,289.87Z"/><path class="cls-28" d="M658.1,280.68c-3.12-8.25-34.74-11.5-40.18,6.16a22.17,22.17,0,0,0-.69,3c.48-6.41,4.11-11.55,11.09-14.42,10.28-4.15,23.34-1.66,28,2.64A5.84,5.84,0,0,1,658.1,280.68Z"/><path class="cls-26" d="M650.73,294s5.7-2.71,5.92-7.44-4.11-8.76-7.78-9.57.72,1,2.26,7S647.72,294.13,650.73,294Z"/><path class="cls-26" d="M621.44,290.09a2.73,2.73,0,0,1-2.7-3.1c.21-1.31,1-3,3.24-4.84,5.33-4.53,21.23-8.32,22.58-5s-7.08,4.22-8.25,9.09C635.4,290,625.75,290.2,621.44,290.09Z"/><path class="cls-26" d="M621.91,292a1.32,1.32,0,0,0-.84,2.08c.72.93,2.07,1.83,4.57,1.56a68.62,68.62,0,0,1,14.61.37c4.38.51,7.84.57,7.69-.84s-8.39-3.57-10.13-4.75S625.94,291.22,621.91,292Z"/><path class="cls-12" d="M592.7,290.66s0,5.31,6.13,6.64S615,295.69,616,294.59a3.37,3.37,0,0,0,.7-2.95c-.12-.92-.41-.38-4.27-1.52s-4.35-.16-8.09-1.9S592.86,287.07,592.7,290.66Z"/><path class="cls-6" d="M614.61,293.46a3.18,3.18,0,0,0,1.89-1.34h0c.52-.82.4-1.9-3.47-3s-4.65-.72-8.39-2.46-11.83.39-12,4a1.93,1.93,0,0,0,.09.54,8.85,8.85,0,0,0,6.14,3.8C603.41,295.81,609.89,294.73,614.61,293.46Z"/><path class="cls-28" d="M594,291.83a1.9,1.9,0,0,1-.15-2.49c1.77-2.36,7.62-3.62,10.48-2.29a19.87,19.87,0,0,0,5.19,1.69c1.55.32,7.82,1.36,6.42,3.46-.76,1.14-3.37,1.26-4.75,1.55s-2.72.53-4.1.7a19.57,19.57,0,0,1-4.45.3C601.65,294.63,596.86,295,594,291.83Z"/><path class="cls-18" d="M604.93,287.84c2.77.37,4.76,1.93,4.44,3.46s-2.83,2.48-5.61,2.11-4.76-1.93-4.44-3.46S602.15,287.47,604.93,287.84Z"/><path class="cls-5" d="M645.41,285.89c-1.27-.54-1.83-1.48-.83-2.45a3.55,3.55,0,0,1,5.07.56,3.79,3.79,0,0,1-.09,4.09,4.32,4.32,0,0,1-1.57,1.49,4.63,4.63,0,0,1-2,.63l.16.7a6.48,6.48,0,0,0,1.16-.35,5.66,5.66,0,0,0,2.76-2.25s1.6-2.53.17-4.65c-1.51-2.27-5.4-2.43-6.81-.23-.88,1.35,0,2.77,1.55,3.44Z"/><path class="cls-11" d="M619,290.13c0-3.21,3.63-5.82,8.12-5.82,3.26,0,6.08,1.38,7.37,3.37,6.7.27,11.87,2,11.87,4.12,0,1-1.05,1.68-1.88,2.11a17.53,17.53,0,0,1-5,1.5,58,58,0,0,1-6.44.74,45.25,45.25,0,0,1-6.27.07A12,12,0,0,1,622,295a5.51,5.51,0,0,1-2.66-2.81A5.39,5.39,0,0,1,619,290.13Z"/><path class="cls-27" d="M642.8,290.48s-9.23-.71-10.12-1-.66-2.18-4.11-2.83-5.54.41-6,2.09,2,3.06,2.92,1.93,1.15-2.43,3.15-2.2a6.61,6.61,0,0,1,3.52,1.84Z"/><path class="cls-5" d="M642,290.11l1,.46-.78.65,1.07.32-1,.66,0,0,1.16.61-.94.73,1.16.49-.15.7c3.16-.39,3.78-2.68,3.78-2.68a2.88,2.88,0,0,0,0-.82c-.3-2.88-5.3-2.78-5.3-2.78l.76.46-.5.15.61.46Z"/><path class="cls-14" d="M599.27,291c-.17,3-4.06,5.75-8,5.75s-7.65-2.94-7.65-5.9c0-4.24,2.2-4.24,5-4,.53,0,1.08.09,1.65.12.33,0,.67,0,1,0s.71,0,1.06-.05.85-.07,1.27-.12C596.76,286.49,599.55,286.11,599.27,291Z"/><path class="cls-5" d="M589.27,282.73h0v0Z"/><path class="cls-5" d="M595.13,285a.53.53,0,0,0-.77,0c.54,0,.29.63-.16,1.08-.27.28-2.28.19-3,0l-.14,0c.51-1.51-.13-4.94-2.12-4.34l.33.94a.57.57,0,0,1,.22-.07c.84-.09,1.56,2.28,1.34,3.45-1.22,0-3.34.63-3.57.25s.43-.59.43-.59l.64.17s-.62-.91-1.24-.69a1,1,0,0,0-.54,1.54,12.3,12.3,0,0,0,3,.2,4.18,4.18,0,0,0-1.86,1.45c-.59.93.64,2.25.64,2.25s-.67-1.31,0-2a13.87,13.87,0,0,1,2.19-1.56l.07,3.26a2.55,2.55,0,0,0,.71-1.87,4.27,4.27,0,0,0-.2-1.49l.66.06a7.11,7.11,0,0,1,1.48.63c.75.45-.37,1.67-.37,1.67a1.73,1.73,0,0,0,.88-.76c.6-1.1-.07-1.38-.61-1.62.42-.05.82,0,1.41-.13C595.62,286.66,595.51,285.39,595.13,285Z"/><path class="cls-6" d="M703.17,253.53V229.44h-6v24.09h0a4.43,4.43,0,0,0-4.42,4.45v41.49h14.85V258a4.43,4.43,0,0,0-4.42-4.45Z"/><path class="cls-5" d="M703.17,253.53V229.44h-3.09v24.09A4.43,4.43,0,0,1,704.5,258v41.49h3.09V258A4.43,4.43,0,0,0,703.17,253.53Z"/><rect class="cls-14" x="697.16" y="229.44" width="6.01" height="11.69"/><rect class="cls-14" x="692.74" y="272.39" width="14.85" height="21.12"/><path class="cls-6" d="M658.76,299.45h-90a5.51,5.51,0,0,1-5.51-5.51h101A5.52,5.52,0,0,1,658.76,299.45Z"/><path class="cls-29" d="M558.22,299.29h-39.1c-1.32,0-2.4-1.62-2.4-3.63h43.89C560.61,297.67,559.54,299.29,558.22,299.29Z"/><path class="cls-21" d="M683.94,274.78c0,1.31.79,2.36,1.71,2.35s1.65-1.09,1.62-2.41-.78-2.36-1.7-2.34S683.92,273.47,683.94,274.78Zm2.54-1.2c0,.31-.39.56-.88.57s-.9-.23-.91-.54.4-.56.89-.56S686.48,273.28,686.48,273.58Zm-2.12,1.83c0-.47.55-.86,1.24-.87s1.27.36,1.28.83-.55.85-1.25.86S684.36,275.88,684.36,275.41Z"/><path class="cls-30" d="M689.43,277.57A5.71,5.71,0,0,1,690,280l.29,17.39a1.91,1.91,0,0,1-1.89,1.93l-9.94.16a1.9,1.9,0,0,1-2-1.87l-.29-17.39a5.72,5.72,0,0,1,.49-2.41Z"/><path class="cls-30" d="M689.43,277.57A5.71,5.71,0,0,1,690,280l.29,17.39a1.91,1.91,0,0,1-1.89,1.93l-9.94.16a1.9,1.9,0,0,1-2-1.87l-.29-17.39a5.72,5.72,0,0,1,.49-2.41Z"/><path class="cls-18" d="M676.21,280.19l.28,17.39a1.92,1.92,0,0,0,2,1.87l9.94-.16a1.91,1.91,0,0,0,1.89-1.93L690,280a5.71,5.71,0,0,0-.56-2.4l-12.73.21A5.72,5.72,0,0,0,676.21,280.19Z"/><path class="cls-26" d="M687.64,297.4,687.36,280a5.87,5.87,0,0,0-.57-2.4l2.64,0A5.71,5.71,0,0,1,690,280l.29,17.39a1.91,1.91,0,0,1-1.89,1.93l-2.64,0A1.9,1.9,0,0,0,687.64,297.4Z"/><path class="cls-14" d="M676.21,280.19l.28,17.39a1.92,1.92,0,0,0,2,1.87l4.06-.06a1.93,1.93,0,0,1-2-1.87l-.29-17.39a5.77,5.77,0,0,1,.5-2.42l-4,.07A5.72,5.72,0,0,0,676.21,280.19Z"/><path class="cls-12" d="M676.7,277.78l12.73-.21h0a1,1,0,0,0-1-1l-10.69.17a1,1,0,0,0-1,1Z"/><rect class="cls-12" x="676.46" y="294.04" width="13.79" height="2.16" transform="translate(-4.76 11.27) rotate(-0.94)"/><path class="cls-21" d="M416,279.23c-.17,1.3.43,2.45,1.34,2.57s1.79-.84,2-2.14-.43-2.45-1.34-2.57S416.21,277.93,416,279.23Zm2.69-.82c0,.3-.47.5-1,.43s-.86-.36-.82-.66.47-.49,1-.43S418.76,278.11,418.73,278.41Zm-2.37,1.5c.06-.46.67-.77,1.36-.68s1.2.54,1.14,1-.67.76-1.36.67S416.3,280.37,416.36,279.91Z"/><path class="cls-30" d="M421.06,282.78a5.71,5.71,0,0,1,.21,2.46L419,302.49a1.9,1.9,0,0,1-2.15,1.63L407,302.84a1.9,1.9,0,0,1-1.66-2.13l2.24-17.25a5.75,5.75,0,0,1,.84-2.32Z"/><path class="cls-30" d="M421.06,282.78a5.71,5.71,0,0,1,.21,2.46L419,302.49a1.9,1.9,0,0,1-2.15,1.63L407,302.84a1.9,1.9,0,0,1-1.66-2.13l2.24-17.25a5.75,5.75,0,0,1,.84-2.32Z"/><path class="cls-6" d="M407.6,283.46l-2.24,17.25a1.9,1.9,0,0,0,1.66,2.13l9.86,1.28a1.9,1.9,0,0,0,2.15-1.63l2.24-17.25a5.71,5.71,0,0,0-.21-2.46l-12.62-1.64A5.75,5.75,0,0,0,407.6,283.46Z"/><path class="cls-8" d="M416.42,302.15l2.24-17.25a5.71,5.71,0,0,0-.22-2.46l2.62.34a5.71,5.71,0,0,1,.21,2.46L419,302.49a1.9,1.9,0,0,1-2.15,1.63l-2.61-.34A1.91,1.91,0,0,0,416.42,302.15Z"/><path class="cls-5" d="M407.6,283.46l-2.24,17.25a1.9,1.9,0,0,0,1.66,2.13l4,.53a1.93,1.93,0,0,1-1.68-2.14L411.61,284a5.8,5.8,0,0,1,.84-2.31l-4-.53A5.75,5.75,0,0,0,407.6,283.46Z"/><path class="cls-21" d="M408.44,281.14l12.62,1.64h0a1,1,0,0,0-.88-1.13l-10.6-1.37a1,1,0,0,0-1.14.86Z"/><rect class="cls-21" x="411.42" y="292.37" width="2.16" height="13.79" transform="translate(62.57 669.75) rotate(-82.6)"/><path class="cls-20" d="M1026.11,422.79a1.76,1.76,0,0,1-1.72-1.41L998,292.06a1.76,1.76,0,0,1,3.45-.7l26.35,129.32a1.76,1.76,0,0,1-1.37,2.07A1.47,1.47,0,0,1,1026.11,422.79Z"/><path class="cls-20" d="M931.59,422.79a1.72,1.72,0,0,1-.39,0,1.76,1.76,0,0,1-1.33-2.1l29.82-133.22a1.76,1.76,0,0,1,3.43.76L933.3,421.42A1.76,1.76,0,0,1,931.59,422.79Z"/><path class="cls-17" d="M925.82,245.74a54.66,54.66,0,0,0,109.32,0Z"/><path class="cls-7" d="M1026.16,245.74c-4.17,26.05-25.5,42.56-52.73,42.56-13,0-26.15-1.13-35.52-8.69a54.66,54.66,0,0,0,97.23-33.87Z"/><path class="cls-14" d="M927.37,245.32h107.77a0,0,0,0,1,0,0v3.93a0,0,0,0,1,0,0H923.43a0,0,0,0,1,0,0v0A3.93,3.93,0,0,1,927.37,245.32Z"/><path class="cls-12" d="M1040.37,245.9a5.35,5.35,0,1,1-4.15-6.32A5.34,5.34,0,0,1,1040.37,245.9Z"/><path class="cls-11" d="M1038.55,245.53a3.49,3.49,0,1,1-2.71-4.12A3.48,3.48,0,0,1,1038.55,245.53Z"/><rect class="cls-20" x="946.49" y="349.62" width="66.45" height="6.75"/><rect class="cls-26" x="937.91" y="233.85" width="49.61" height="6.76" rx="3.38"/><rect class="cls-18" x="950.61" y="233.85" width="36.91" height="6.76" rx="3.38"/><rect class="cls-18" x="992.61" y="233.85" width="28.64" height="6.58" rx="3.29"/><rect class="cls-12" x="932.17" y="240.35" width="95.71" height="4.97" rx="2.48"/><path class="cls-21" d="M1098.78,139.76a30.68,30.68,0,0,0,3.92-.71,18.78,18.78,0,0,1,4.46-.72c2.35.12,6.24,1.16,7.93,3.95,2.1,3.49,7.39,2.06,3.29,17.23-4.64,17.16-13.92,13.28-14.09,12.93s-6.35-12.88-6.35-12.88-4.25,5.82-4.2,5.58S1082.92,141.73,1098.78,139.76Z"/><path class="cls-13" d="M1025.81,168.73c.54-1.17,5.5,2.22,6.58,1.55s-4.49-6.14-3.94-7.11c1-1.8,6.46,5.6,7,4.81s-4.73-8.71-2.9-9.18,4.58,8.78,5.52,8.17-3.34-8.36-1.58-10c.94-.86,5.62,14.18,7.25,14.78s3.38-6,4.91-5.77-4.86,12.19-4.52,13.11,6.42,21.47,10,27.27c2.11-1,14.42-5.54,16.39-6.57.85,4.49,3.56,7.88,4.66,12.28-6.82,3.1-25.57,8.88-27.58,8.17-6.09-2.15-9.48-31.57-10.53-37.06s-3.65-6.53-5.17-9.4S1025.28,169.91,1025.81,168.73Z"/><path class="cls-17" d="M1064.85,219.19s26.44-7.69,33-13.23,7.83-18.36,1.58-22.7S1060,201.41,1060,201.41Z"/><path class="cls-13" d="M1073.9,403.3s.53,9.46.53,9.48c.19,1.2,1,4.17,1,5.26,0,4.1-17.91-3.48-13.89-5.3.36-.16,2.26-1.41,2.38-2.8.19-2.15.65-6.5.65-6.5Z"/><path class="cls-18" d="M1061.53,412.7a62.71,62.71,0,0,0,6.36,1.57c2.15.31,5-2.33,6.52-1.61s1.51,8.51,1.51,8.51-22.45,1.35-28.79-.73C1044.61,419.62,1052.93,415.62,1061.53,412.7Z"/><path class="cls-13" d="M1113.37,404.21s.52,9.46.52,9.48c.2,1.2,1,4.17,1,5.26,0,4.1-17.91-3.48-13.9-5.3.36-.16,2.83-2.34,3-3.73.19-2.15.09-5.58.09-5.58Z"/><path class="cls-18" d="M1101,413.61a62.71,62.71,0,0,0,6.36,1.57c2.16.31,5-2.33,6.52-1.62,1.68.79,1.74,7.86,1.74,7.86s-24,1.77-29.64.1C1083.44,420.78,1092.4,416.53,1101,413.61Z"/><path class="cls-7" d="M1085,267.69l-7.57,3.33-15.93,77.49.64,58.09,12.77.3s5.94-50.82,5.94-54.75,27.51-68.92,27.51-68.92Z"/><path class="cls-7" d="M1090.83,272s5.57,59.71,5.57,69.77,4.53,66.39,4.53,66.39l12.8-.08s.92-17.17,2.29-42.42c.22-4-.27-11.94,0-16,2-29.45,5.93-57.18,4-68.17-.3-1.77-.87-6.39-2-7.56C1109.71,265,1090.83,272,1090.83,272Z"/><path class="cls-17" d="M1111.91,182.67s8.83,1.25,11.16,3c2.61,2,5.52,6.34,5.52,6.34s-10.85,52.21-10.86,61c0,6.8,2.34,23.49,2.34,23.49s-32.77,2.11-45.18-2.88c0,0,3.92-19.86,3.92-25.07s4.69-52.61,5.76-55.92c1-3,2.73-8.4,8.72-9.73S1111.91,182.67,1111.91,182.67Z"/><path class="cls-13" d="M1109.5,168.61l2.18,14.58s-8,17.36-12.75,15.86c-4-1.27-1.54-16.63-1.54-16.63.06-.38,2.26-8.75,1.53-12.38C1098.09,166,1109.5,168.61,1109.5,168.61Z"/><path class="cls-18" d="M1098.92,170c-.65-4.12,10.58-1.43,10.58-1.43l.18,1.21.33,2.23s-3.81,9-12,7.77C1098.32,177.6,1099.19,171.74,1098.92,170Z"/><path class="cls-12" d="M1079.78,253.35h0a2.08,2.08,0,0,1-2.15-1.63L1066.42,201s.42,0,.46,0l14.77,49.69A2.08,2.08,0,0,1,1079.78,253.35Z"/><path class="cls-12" d="M1067.07,189.1s1.77,12-.35,12.26-4.9-12.73-4.9-12.73,3.23,9.8,4.4,9.67S1067.07,189.1,1067.07,189.1Z"/><path class="cls-26" d="M1074.55,183.45a3.67,3.67,0,0,1,1.58,5.78,4.14,4.14,0,0,1-3.18,1.37c-4.9.16-11.18,1.77-14.26,5.37s-8.83-.71-4.58-5.51C1057.86,186.22,1067.2,180.68,1074.55,183.45Z"/><path class="cls-9" d="M1064.65,319.17l32.66,6.43a10.22,10.22,0,0,0,12.08-9.22l4.33-50.67-36.62-4.14Z"/><path class="cls-21" d="M1119.35,264.08l.88,3.54-14.53,1.74s-1.89-4.77-.71-4.63l8.73,1Z"/><path class="cls-13" d="M1070.62,239.56c.27-.19.24-.34.24-.34a2.42,2.42,0,0,1,.34-2.41c.55-.34,3.33-.49,3.59-.64a3,3,0,0,1,1.11-.51c.4,0,3.31-1.16,3.88-1.2s2.41.91,3.54,1.17a14,14,0,0,1,3.31,1.79c.37.23,8-.16,10-.23,2.13-.08,3.79-.28,3.79-.28s12.54-1.84,25.62-2.81l-2.33-10.76,12.32-1.43c.84,6.11,3,15.59,3.13,18.47.19,5.67-19.15,5.09-36.26,4.3h0l-5.28-.27c-2.21,0-5.9.2-7.61.3h0a23.42,23.42,0,0,0-2.72.47,18.4,18.4,0,0,1-2.42.53,7.37,7.37,0,0,0-1.13.54c-.3.16-4.22.29-4.85.33a9.56,9.56,0,0,1-2-.33l-2.62,0c-1.93,0-1.29-2-1.29-2-.9,0-1.36-.36-1.49-.88a3.9,3.9,0,0,1,0-1.21c0-.1-.31-.16-.31-.16-.58,0-1-.67-1-1.09A2,2,0,0,1,1070.62,239.56Z"/><path class="cls-17" d="M1121.44,184.84s5.17,1.21,10.51,7.33c4.86,5.56,7.92,36.7,7.92,36.7l-16.77,2.76-1.34-15.06-4.49-6.89Z"/><path class="cls-13" d="M1105.66,146a8.46,8.46,0,0,0-11.25,6.43,64,64,0,0,0-.93,8.11c-.35,7.39,3.25,14.71,6.6,14.8s12.75-4.42,13.4-14.92C1113.88,154,1110.83,148,1105.66,146Z"/><path class="cls-13" d="M1111,161.21a2.46,2.46,0,1,0,2.5-2.89A2.71,2.71,0,0,0,1111,161.21Z"/><path class="cls-21" d="M1113.49,158.32s-4.11.18-5-2.64-5-9.3-12.08-8.39,6.93-4.29,7.45-4.18l6.87,1.35s4.07,5,4.15,5.49.51,5.58.51,5.58Z"/><path class="cls-16" d="M1097.15,166.9l5.93.58a2.61,2.61,0,0,1-3,2.06C1096.92,169.32,1097.15,166.9,1097.15,166.9Z"/><path class="cls-19" d="M400.4,292.42a29.76,29.76,0,0,1,4.82-4,7,7,0,0,1,2.94-.85s2.29-.11,2.46.43a1.19,1.19,0,0,1-.6,1.34c-.41.18-1.32.12-1.73.3a3.47,3.47,0,0,0-.94,2c0,.53,6.7,0,6.7,0s1.92-.26,2.55-.4,2.13-.59,2.13-.59,2.29-.56,2.42.18c.07.44-1.83,1.51-3.83,2.23s-4.39,1.21-4.38,1.44c0,.55,3.73.32,3.73.32a11.65,11.65,0,0,1,2.51-.48c1-.5,2.83-.81,2.93.1a15.93,15.93,0,0,1-2.36,1.32s-1.64.45-2.42.71a44.16,44.16,0,0,1-4.41.73c-.78.19-.48.39-.51.48a22.08,22.08,0,0,0,2.51-.14,14.87,14.87,0,0,0,2.43-.15,16.85,16.85,0,0,1,2.59-.33c1.91-.11,1.63,1.15-.14,1.55l-2.15.48c-2.89.62-5.63.55-5.67.88s4.95.23,4.95.23,2.73.69.12,1.29a22,22,0,0,1-5.56.55c-.72-.08-3.36.43-5.82-.26-1.82-.51-4.41-1.31-5.64-1.7Z"/><path class="cls-5" d="M407.18,286.73l-.67,5.1a17.47,17.47,0,0,0,4.07.06l.33-2.52-.24-2.08-.91-1.19Z"/><path class="cls-13" d="M1143.81,409s.4,6.65.4,6.67a35.32,35.32,0,0,1,.73,3.69c0,2.88-13.69-2.45-10.62-3.72.28-.12,1.73-1,1.83-2,.14-1.52.49-4.57.49-4.57Z"/><path class="cls-21" d="M1134.36,415.61s3.21.88,4.86,1.1,3.81-1.63,5-1.13,1.23,5.52,1.23,5.52-17.24,1.41-22.08-.05C1121.43,420.47,1127.79,417.66,1134.36,415.61Z"/><path class="cls-20" d="M1166.44,303.61s1.52,10.1-.38,14.52-16.21,47.89-16.4,51.43-5,42.71-5,42.71l-10-.28-2.15-43.54,4.51-54.73,4.38-13.83Z"/><path class="cls-13" d="M1171.81,409s.4,6.65.4,6.67a35.32,35.32,0,0,1,.73,3.69c0,2.88-13.68-2.45-10.62-3.72.28-.12,2.17-1.65,2.26-2.63.14-1.51.07-3.91.07-3.91Z"/><path class="cls-21" d="M1162.36,415.61s3.21.88,4.86,1.1,3.81-1.63,5-1.13,1.33,5.52,1.33,5.52-17.31,1.65-22.18-.05C1149.46,420.39,1155.79,417.66,1162.36,415.61Z"/><path class="cls-20" d="M1168.71,304.14s2.32,11.21,1.38,19.72-1,38.71-1,38.71l3.6,48.33-8.56.19s-14.34-50.17-14.15-48.93-3.4-34-3.4-34l16.29-25.06Z"/><path class="cls-13" d="M1101.94,299c-.29-.83,3.75-1.47,4-2.3s-5.09-1-5.28-1.69c-.33-1.36,5.83-.24,5.71-.87s-6.41-2.11-5.72-3.19,6.37,2.2,6.55,1.46-5.56-2.58-5.44-4.2c.06-.87,9.4,4.4,10.49,3.94s-1.14-4.56-.26-5.16,3.42,7.73,4,8,13.6,5.87,18.1,7.06c.56-1.51,5-9.65,5.44-11.07,2.52,1.82,6.15.37,8.75,2-1.93,4.72-7.5,18.83-8.82,19.42-4,1.78-22.09-9.34-25.17-11.57s-4.86-1.53-7-2.24S1102.22,299.86,1101.94,299Z"/><path class="cls-9" d="M1135.49,296.5l12.31,1.9s1.09-10.12,1.34-15c.31-5.87.2-13.46-.52-13.33a10.79,10.79,0,0,0-6.46,3.42C1136.25,280.83,1135.49,296.5,1135.49,296.5Z"/><path class="cls-2" d="M1142.78,282.12c-.35,1.78-9,46.62-9,46.62,22,12.05,38.14,6.31,38.14,6.31s-.83-33.2.29-37.81c.74-3,3.45-23.11,1.48-23.79a62,62,0,0,0-9.51-2.64c-2.72-.42-13.31-1.13-15.25-.59A24.19,24.19,0,0,0,1142.78,282.12Z"/><path class="cls-21" d="M1160.47,233.63s-8.14-3.57-10.32,3.5c0,0-7.09-.19-5.33,7,0,0-6.82,4.08-1.66,12.93,0,0-1.33,8.77,8.81,8.57,0,0,1.74,2.95,6.29,1.89s5.64-2.35,5.64-2.35,8.35,1.78,10.27-5.78c0,0,5.52-1.75,1.21-8.68,0,0,4.21-9.7-4.62-11.87C1170.76,238.85,1169,229.37,1160.47,233.63Z"/><path class="cls-13" d="M1166.59,255c-.5,1.82.09,3.58,1.32,3.92s2.64-.86,3.15-2.68-.09-3.58-1.32-3.92S1167.1,253.17,1166.59,255Z"/><path class="cls-13" d="M1145.14,252.19c0,1.9,1.12,3.4,2.4,3.37s2.28-1.6,2.23-3.49-1.13-3.4-2.41-3.36S1145.09,250.3,1145.14,252.19Z"/><path class="cls-13" d="M1154.42,263.78c0,.13-.74,5-1.14,7.52a2,2,0,0,0,1.3,2.22c2.42.89,7.13,2,10.1-1.08a1.29,1.29,0,0,0,.35-1.06l-1.23-11.31Z"/><path class="cls-26" d="M1154,266.49c2.57,1.06,5.68.85,9-1.45a12.49,12.49,0,0,0,1.19-.92l-.44-4.05-9.38,3.71C1154.43,263.85,1154.25,265,1154,266.49Z"/><path class="cls-13" d="M1159.5,239.45a11.21,11.21,0,0,1,6.48,4.32c2.55,3.58,4.6,14.34-3.14,19.69s-14.18-1.57-14.54-8.54S1150.37,238.84,1159.5,239.45Z"/><path class="cls-16" d="M1152.08,258l8.06.06a3.53,3.53,0,0,1-3.75,3.14C1152.07,261.33,1152.08,258,1152.08,258Z"/><path class="cls-21" d="M1151.63,241s4.28-.4,6.77.94,8.39,11.06,10.06,10.55,2.37-6.63,1.72-7.84a48,48,0,0,0-3.9-5.42,39.75,39.75,0,0,0-4.59-1.72c-.68-.1-6,.15-6,.15Z"/><path class="cls-13" d="M1148.32,323.14c-.75-.46,1.94-3.54,1.58-4.32s-4.51,2.53-5.13,2.09c-1.13-.83,4.32-3.92,3.82-4.33s-6.27,2.49-6.44,1.22,6.31-2.39,6-3.07-5.92,1.57-6.87.25c-.51-.7,10-2.65,10.58-3.7s-3.79-2.77-3.51-3.78,7.58,3.73,8.23,3.58,14.2-4.21,18.41-6.18c-.53-1.51-2.38-10.58-2.91-12,3.1-.21,5-3.65,8-4,1.55,4.87,6.32,19.27,5.68,20.56-2,3.95-22.93,7-26.72,7.25s-4.72,1.95-6.78,2.74S1149.07,323.6,1148.32,323.14Z"/><path class="cls-9" d="M1184.1,297.52l-14.18,6.86S1167.7,294,1166,287.53c-1.43-5.54,5.63-15.39,8-14C1179.29,276.51,1184.1,297.52,1184.1,297.52Z"/><polygon class="cls-26" points="763.41 221.43 765.73 221.42 765.47 223.64 763.41 221.43"/><path class="cls-13" d="M821.56,215.47A158.11,158.11,0,0,0,819,195.05a106.45,106.45,0,0,0-6.24,13.77c-.3.7-6.55,17-6.55,17S775.06,225,775,225l.54,7.55c1.23-.06,41.39,5.52,43.47,4.87C820.85,236.85,822.06,224.7,821.56,215.47Z"/><path class="cls-13" d="M775.87,225.37l-.3,7.18c-1.29,0-2.52,0-4.28.19l-2.37-10-.39-.59h0s-2.75-2.3-2.52-3.12,2.07.16,2.65.52A68.86,68.86,0,0,1,775,225Z"/><path class="cls-17" d="M826.67,182.89l-9.77,38c-3.62-1.46-6.62-3.6-10.23-5.09C815.37,191.22,826.67,182.89,826.67,182.89Z"/><path class="cls-21" d="M818.68,162.24c-1.21-5.52-2.4-11.07.8-17.12a15.56,15.56,0,0,1,12.23-8.34c14.67-1.74,11.54,12,32,14.92,6.37.92,12.28,1.81,17.6,5,9.61,5.72,13.23,14.9,6.86,29.85-15.59,36.61-52.91,4.8-58.6-1.68S819.46,165.78,818.68,162.24Z"/><path class="cls-13" d="M877.34,393.47s1,10.6,3.73,12.55,6.26,9.15,4.47,13a4.54,4.54,0,0,1-2.95,2.32,7.84,7.84,0,0,1-9.39-4.4,22.32,22.32,0,0,1-1.84-8.09c-.41-8.61-3.09-13-3.09-13Z"/><path class="cls-13" d="M836.08,397.81s-.85,10.7-.16,14.18c.37,1.86,2.42,5.69,1.48,7.44a4.65,4.65,0,0,1-2,2.19L811,422c-1.33,0-.45-.84.62-1.62,1.75-1.29,3.16-2.13,8.75-4.83.37-.18,1.7-1,2.18-1.32a16.83,16.83,0,0,0,3.48-3.07c1.75-1.94,1.9-11.36,1.9-11.36Z"/><path class="cls-7" d="M817,255.57S814,273,816,284.34s11.68,117,11.68,117l10.74.61s2.25-44.1,1.85-50.24-3.59-16.39-3.59-16.39l1.07-35.61-13.56-46.78Z"/><path class="cls-7" d="M848.61,251.92s8.46,12.7,10.47,23.22-1.48,42.82,2.4,56.6c2.09,7.46,10,19,11.25,28.61s5.95,34.89,5.95,34.89l-10.74,2.12-25-63.05-19.57-57-5-29.35Z"/><path class="cls-9" d="M841.76,179.64s7.41.84,11.84,5.66-7.16,43.55-8,49.68,6.61,20.44,6.61,20.44-27.68,5.12-35.2.15c0,0-.8-44.1,0-48.48s7.52-22.2,9.13-24S841.76,179.64,841.76,179.64Z"/><path class="cls-13" d="M838,164.7s.05.33.16.89c.5,2.69,2.42,11.6,3.72,14,1.57,3-5.37,12.41-12.06,11.26-2-.35,1.69-8.68,1.51-9.56-.34-1.69-.8-4-1.27-6.36-.26-1.34-.53-2.69-.78-4-.71-3.61-1.3-6.56-1.3-6.56Z"/><path class="cls-18" d="M838.2,165.59c-.11-.56-.16-.89-.16-.89l-10-.24s.59,2.95,1.3,6.56l.78,3.93a9.27,9.27,0,0,0,4.78-2.39,12.54,12.54,0,0,0,3.62-5.37Z"/><path class="cls-13" d="M832,140.9a11.84,11.84,0,0,1,7,4.39c3,3.82,6.14,15.63-1.21,22.05s-14.61-.85-15.68-8.55S821.31,140.63,832,140.9Z"/><path class="cls-13" d="M820,156.88c.47,1.86,1.68,3.12,2.72,2.81s1.5-2.07,1-3.93-1.68-3.11-2.72-2.8S819.56,155,820,156.88Z"/><path class="cls-21" d="M830.77,140.73s6.3,11.23,10.82,11.74,5.1,6.49,5.1,6.49-1.61-13.75-6.08-16.4A16.61,16.61,0,0,0,830.77,140.73Z"/><path class="cls-13" d="M840.11,155.15c-.37,2,.37,3.82,1.65,4.09s2.61-1.15,3-3.14-.38-3.82-1.65-4.09S840.48,153.16,840.11,155.15Z"/><path class="cls-18" d="M872.47,415.08c5.85,1.07,9.74-2.35,11.77-4.91,1.49,2.9,2.4,6.52,1.3,8.89-1,2.1-3.58,2.67-5.8,2.76a6.31,6.31,0,0,1-5.7-3.18A19.82,19.82,0,0,1,872.47,415.08Z"/><path class="cls-18" d="M822.58,414.25a22.12,22.12,0,0,0,13.87-.54c.68,1.94,1.59,4.38,1.11,5.78-.59,1.73-1.43,2.11-2.18,2.13-5.88.16-21.55.37-26,.43a.74.74,0,0,1-.57-1.21C809.89,419.52,822.1,414.55,822.58,414.25Z"/><path class="cls-18" d="M766.44,211.92l0,.24-.15,1.51c0,.14,0,.27,0,.41L780,218.22l9.9-1,.46-2.4-.77-.18-.75.48-.77-.43-.75.46-.77-.44-.76.44-.76-.46-.77.43-.75-.48-.78.42-.73-.5-.79.4-.73-.51-.8.37-.71-.53-.81.36-.69-.55-.82.33-.68-.57-.83.31-.66-.59-.84.27-.64-.61-.85.24-.61-.64-.86.21-.58-.67-.87.16-.54-.7-.88.11-.5-.73-.77-.15Z"/><path class="cls-11" d="M766.26,213.89c-.17-.08-.5,9.63-1.18,12.12s-2.37,11.41-2.37,11.41l23.91,3.89s.68-12.84,1.44-16.77,2-7.23,1.83-7.31S771.83,216.41,766.26,213.89Z"/><path class="cls-8" d="M786,229.27c-.57,2.91-5.28,4.44-10.53,3.42s-9.06-4.2-8.49-7.11,5.27-4.43,10.53-3.41S786.59,226.37,786,229.27Z"/><path class="cls-13" d="M768.8,228.81a1.72,1.72,0,0,1-1.09,2c-1.54.56-4.2,1.18-5.17-.65-1.42-2.64-.22-9.07.87-8.74s5.85,4.46,5.35,5.58A2.48,2.48,0,0,0,768.8,228.81Z"/><path class="cls-21" d="M812,221.56c.24,1.29,1.17,2.2,2.07,2s1.45-1.35,1.21-2.64-1.17-2.2-2.07-2S811.71,220.27,812,221.56Zm2.31-1.6c.06.3-.29.61-.78.7s-.92-.08-1-.38.29-.61.78-.7S814.21,219.66,814.26,220Zm-1.8,2.15c-.08-.46.41-.94,1.09-1.06s1.31.14,1.4.6-.4.94-1.09,1.06S812.55,222.57,812.46,222.11Z"/><path class="cls-30" d="M817.82,223.4a5.78,5.78,0,0,1,1,2.27l3.16,17.1A1.91,1.91,0,0,1,820.4,245l-9.78,1.81a1.92,1.92,0,0,1-2.24-1.52l-3.16-17.1a5.72,5.72,0,0,1,.09-2.47Z"/><path class="cls-30" d="M817.82,223.4a5.78,5.78,0,0,1,1,2.27l3.16,17.1A1.91,1.91,0,0,1,820.4,245l-9.78,1.81a1.92,1.92,0,0,1-2.24-1.52l-3.16-17.1a5.72,5.72,0,0,1,.09-2.47Z"/><path class="cls-18" d="M805.22,228.18l3.16,17.1a1.92,1.92,0,0,0,2.24,1.52l9.77-1.81a1.9,1.9,0,0,0,1.55-2.21l-3.16-17.11a5.78,5.78,0,0,0-1-2.27l-12.51,2.31A5.72,5.72,0,0,0,805.22,228.18Z"/><path class="cls-26" d="M819.35,243.25l-3.16-17.1a5.72,5.72,0,0,0-1-2.27l2.59-.48a5.78,5.78,0,0,1,1,2.27l3.16,17.1A1.91,1.91,0,0,1,820.4,245l-2.6.48A1.91,1.91,0,0,0,819.35,243.25Z"/><path class="cls-14" d="M805.22,228.18l3.16,17.1a1.92,1.92,0,0,0,2.24,1.52l4-.74a1.91,1.91,0,0,1-2.25-1.51l-3.16-17.11a5.68,5.68,0,0,1,.09-2.46l-4,.73A5.72,5.72,0,0,0,805.22,228.18Z"/><path class="cls-12" d="M805.31,225.71l12.51-2.31h0a1,1,0,0,0-1.18-.8l-10.52,1.94a1,1,0,0,0-.81,1.17Z"/><rect class="cls-12" x="807.84" y="240.63" width="13.79" height="2.16" transform="translate(-30.35 152.02) rotate(-10.47)"/><path class="cls-19" d="M825.5,234.21a24.42,24.42,0,0,0-3.46-3.82,5.82,5.82,0,0,0-2.29-1s-1.86-.38-2.07,0a1,1,0,0,0,.34,1.16c.3.2,1.06.26,1.37.46a2.87,2.87,0,0,1,.52,1.78c-.06.42-5.48-.87-5.48-.87s-1.54-.45-2-.64-1.66-.75-1.66-.75-1.81-.73-2-.15c-.11.35,1.31,1.45,2.85,2.28s3.45,1.52,3.41,1.71c-.1.44-3.09-.2-3.09-.2a9.9,9.9,0,0,0-2-.71c-.76-.52-2.22-1-2.4-.27a13,13,0,0,0,1.76,1.36s1.29.56,1.89.87a36.73,36.73,0,0,0,3.51,1.14c.62.25.35.37.37.45a15.4,15.4,0,0,1-2-.43,11.06,11.06,0,0,1-2-.42,13.6,13.6,0,0,0-2.07-.58c-1.55-.33-1.48.72-.09,1.27l1.7.65c2.29.86,4.54,1.15,4.54,1.41s-4.09-.42-4.09-.42-2.31.22-.25,1a17.51,17.51,0,0,0,4.48,1.14,16.86,16.86,0,0,0,4.79.51c1.55-.18,3.76-.51,4.82-.67Z"/><path class="cls-13" d="M862,214.23,851.4,215.8s.59,9,.45,10.1c0,0-18.68,6.53-26.35,8.31l-.76,6.3c1.5-.31,2.72-.67,3.46-.79,1.44-.23,24.58-3.59,24.58-3.59s9.18-1.75,9.72-3.37S862,214.23,862,214.23Z"/><path class="cls-17" d="M852.24,183.9s3.55,1.68,6.67,8.94c3,6.9,5.29,31.34,5.29,31.34l-15.06,1.31L845,216.17a29.47,29.47,0,0,1,3-29.29C849.71,184.61,851.24,183.24,852.24,183.9Z"/><path class="cls-26" d="M819.35,228.87l.1.42.46,3.41s-1.58-.63-1.74-1-1.22-2.33-1.17-2.37a6.62,6.62,0,0,1,.61-.74,5.63,5.63,0,0,1,1.11-.11Z"/><rect class="cls-12" x="25.83" y="420.32" width="1269.16" height="7.23"/><path class="cls-16" d="M827,162.16l7.46-.06s-1.07,2.46-3.36,2.39C829.84,164.45,828.09,164.71,827,162.16Z"/></svg>