<?xml version="1.0" encoding="UTF-8" standalone="no"?>
<svg
   xmlns:dc="http://purl.org/dc/elements/1.1/"
   xmlns:cc="http://creativecommons.org/ns#"
   xmlns:rdf="http://www.w3.org/1999/02/22-rdf-syntax-ns#"
   xmlns:svg="http://www.w3.org/2000/svg"
   xmlns="http://www.w3.org/2000/svg"
   xmlns:sodipodi="http://sodipodi.sourceforge.net/DTD/sodipodi-0.dtd"
   xmlns:inkscape="http://www.inkscape.org/namespaces/inkscape"
   width="51.913944mm"
   height="46.500488mm"
   viewBox="0 0 51.913944 46.500488"
   version="1.1"
   id="svg8"
   inkscape:version="1.0.1 (3bc2e813f5, 2020-09-07)"
   sodipodi:docname="logo_colored_favicon.svg"
   inkscape:export-filename="C:\Users\larst\Documents\PU\middagsdeling\front-end\src\media\logo_colored_favicon.png"
   inkscape:export-xdpi="130"
   inkscape:export-ydpi="130">
  <defs
     id="defs2" />
  <sodipodi:namedview
     id="base"
     pagecolor="#606060"
     bordercolor="#000000"
     borderopacity="1"
     inkscape:pageopacity="0"
     inkscape:pageshadow="2"
     inkscape:zoom="2.8"
     inkscape:cx="52.331876"
     inkscape:cy="62.950824"
     inkscape:document-units="mm"
     inkscape:current-layer="g904"
     inkscape:document-rotation="0"
     showgrid="false"
     inkscape:showpageshadow="false"
     borderlayer="true"
     inkscape:pagecheckerboard="false"
     inkscape:window-width="2736"
     inkscape:window-height="1714"
     inkscape:window-x="-12"
     inkscape:window-y="-12"
     inkscape:window-maximized="1">
    <inkscape:grid
       type="xygrid"
       id="grid12"
       originx="-79.043027"
       originy="-125.21669" />
  </sodipodi:namedview>
  <metadata
     id="metadata5">
    <rdf:RDF>
      <cc:Work
         rdf:about="">
        <dc:format>image/svg+xml</dc:format>
        <dc:type
           rdf:resource="http://purl.org/dc/dcmitype/StillImage" />
        <dc:title></dc:title>
      </cc:Work>
    </rdf:RDF>
  </metadata>
  <g
     inkscape:groupmode="layer"
     id="layer2"
     inkscape:label="Layer 1"
     transform="translate(-79.043031,-125.21668)"
     style="display:inline">
    <g
       id="g1531"
       transform="translate(-181.50595,24.52381)">
      <g
         id="g904"
         transform="translate(183.35805,-24.523805)">
        <g
           id="g1455"
           transform="translate(19.568694)">
          <path
             d="m 64.698723,138.00413 c -1.227662,0 -4.487326,0.25396 -5.545656,0.76188 -1.015998,0.5079 -1.601446,1.27274 -1.523996,2.28562 l 2.116666,27.68153 c 0.08068,1.05508 0.507998,1.82005 1.523996,2.28564 1.05833,0.46558 2.201328,0.69837 3.42899,0.69837 1.227662,0 2.349492,-0.23279 3.365488,-0.69837 1.05833,-0.46559 1.506819,-1.23056 1.587496,-2.28564 l 2.116666,-27.68153 c 0.07745,-1.01288 -0.529166,-1.77772 -1.587496,-2.28562 -1.015996,-0.50792 -4.254492,-0.76188 -5.482154,-0.76188 z"
             style="font-weight:800;font-size:31.7499px;line-height:1.25;font-family:Dosis;-inkscape-font-specification:'Dosis Ultra-Bold';font-variation-settings:normal;vector-effect:none;fill:#1d3557;fill-opacity:1;stroke-width:1.58737;stroke-linecap:butt;stroke-linejoin:miter;stroke-miterlimit:4;stroke-dasharray:none;stroke-dashoffset:0;stroke-opacity:1;stop-color:#000000"
             id="path879"
             sodipodi:nodetypes="scsscscsscs" />
          <path
             d="m 83.579334,138.00413 c -1.227662,0 -4.487326,0.25396 -5.545656,0.76188 -1.015998,0.5079 -1.601446,1.27274 -1.523996,2.28562 l 2.116666,27.68153 c 0.08068,1.05508 0.507998,1.82005 1.523996,2.28564 1.05833,0.46558 2.201328,0.69837 3.42899,0.69837 1.227662,0 2.349492,-0.23279 3.365488,-0.69837 1.05833,-0.46559 1.506819,-1.23056 1.587496,-2.28564 l 2.116666,-27.68153 c 0.07745,-1.01288 -0.529166,-1.77772 -1.587496,-2.28562 -1.015996,-0.50792 -4.254492,-0.76188 -5.482154,-0.76188 z"
             style="font-weight:800;font-size:31.7499px;line-height:1.25;font-family:Dosis;-inkscape-font-specification:'Dosis Ultra-Bold';font-variation-settings:normal;display:inline;vector-effect:none;fill:#1d3557;fill-opacity:1;stroke-width:1.58737;stroke-linecap:butt;stroke-linejoin:miter;stroke-miterlimit:4;stroke-dasharray:none;stroke-dashoffset:0;stroke-opacity:1;stop-color:#000000"
             id="path879-5"
             sodipodi:nodetypes="scsscscsscs" />
          <path
             d="m 102.45992,138.00413 c -1.22766,0 -4.487318,0.25396 -5.545642,0.76188 -1.015994,0.5079 -1.601442,1.27274 -1.523992,2.28562 l 2.116659,27.68153 c 0.0807,1.05508 0.507997,1.82005 1.523991,2.28564 1.058324,0.46558 2.201324,0.69837 3.428984,0.69837 1.22766,0 2.34949,-0.23279 3.36549,-0.69837 1.05833,-0.46559 1.50682,-1.23056 1.58749,-2.28564 l 2.11667,-27.68153 c 0.0774,-1.01288 -0.52917,-1.77772 -1.5875,-2.28562 -1.01599,-0.50792 -4.25449,-0.76188 -5.48215,-0.76188 z"
             style="font-weight:800;font-size:31.7499px;line-height:1.25;font-family:Dosis;-inkscape-font-specification:'Dosis Ultra-Bold';font-variation-settings:normal;display:inline;vector-effect:none;fill:#1d3557;fill-opacity:1;stroke-width:1.58737;stroke-linecap:butt;stroke-linejoin:miter;stroke-miterlimit:4;stroke-dasharray:none;stroke-dashoffset:0;stroke-opacity:1;stop-color:#000000"
             id="path879-5-4"
             sodipodi:nodetypes="scsscscsscs" />
          <path
             id="path29-3"
             style="font-variation-settings:normal;vector-effect:none;fill:#f26979;fill-opacity:1;stroke-width:1.5875;stroke-linecap:butt;stroke-linejoin:miter;stroke-miterlimit:4;stroke-dasharray:none;stroke-dashoffset:0;stroke-opacity:1;stop-color:#000000"
             d="m 69.99039,130.50836 a 5.2916666,5.2916666 0 0 1 -5.291666,5.29171 5.2916666,5.2916666 0 0 1 -5.291668,-5.29171 5.2916666,5.2916666 0 0 1 5.291668,-5.29168 5.2916666,5.2916666 0 0 1 5.291666,5.29168 z" />
          <path
             id="path29-2-8"
             style="font-variation-settings:normal;vector-effect:none;fill:#e18b6b;fill-opacity:1;stroke-width:1.5875;stroke-linecap:butt;stroke-linejoin:miter;stroke-miterlimit:4;stroke-dasharray:none;stroke-dashoffset:0;stroke-opacity:1;stop-color:#000000"
             d="m 88.871,130.50836 a 5.2916666,5.2916666 0 0 1 -5.291666,5.29171 5.2916666,5.2916666 0 0 1 -5.291668,-5.29171 5.2916666,5.2916666 0 0 1 5.291668,-5.29168 5.2916666,5.2916666 0 0 1 5.291666,5.29168 z" />
          <path
             id="path29-2-1-8"
             style="font-variation-settings:normal;vector-effect:none;fill:#3c887e;fill-opacity:1;stroke-width:1.5875;stroke-linecap:butt;stroke-linejoin:miter;stroke-miterlimit:4;stroke-dasharray:none;stroke-dashoffset:0;stroke-opacity:1;stop-color:#000000"
             d="m 107.75159,130.50836 a 5.2916666,5.2916666 0 0 1 -5.29167,5.29171 5.2916666,5.2916666 0 0 1 -5.291652,-5.29171 5.2916666,5.2916666 0 0 1 5.291652,-5.29168 5.2916666,5.2916666 0 0 1 5.29167,5.29168 z" />
        </g>
      </g>
    </g>
  </g>
</svg>
